<svg width="227" height="173" viewBox="0 0 227 173" fill="none" xmlns="http://www.w3.org/2000/svg">
<g clip-path="url(#clip0)">
<path d="M220.133 89.5828H162.07C161.794 89.5828 161.567 89.3532 161.567 89.0745V0.565714C161.567 0.286947 161.794 0.057373 162.07 0.057373H220.133C220.409 0.057373 220.636 0.286947 220.636 0.565714V89.0745C220.644 89.3532 220.417 89.5828 220.133 89.5828ZM162.581 88.5661H219.631V1.08225H162.581V88.5661Z" fill="#C2AC96"/>
<path d="M219.744 13.0365H162.07C161.794 13.0365 161.567 12.8069 161.567 12.5281C161.567 12.2493 161.794 12.0198 162.07 12.0198H219.744C220.02 12.0198 220.247 12.2493 220.247 12.5281C220.247 12.8069 220.028 13.0365 219.744 13.0365Z" fill="#C2AC96"/>
<path d="M190.307 89.3533C190.031 89.3533 189.804 89.1237 189.804 88.8449V12.5199C189.804 12.2412 190.031 12.0116 190.307 12.0116C190.583 12.0116 190.81 12.2412 190.81 12.5199V88.8367C190.81 89.1237 190.583 89.3533 190.307 89.3533Z" fill="#C2AC96"/>
<path d="M192.593 112.827C192.318 112.827 192.091 112.598 192.091 112.319V105.087C192.091 104.808 192.318 104.579 192.593 104.579C192.869 104.579 193.096 104.808 193.096 105.087V112.319C193.096 112.598 192.869 112.827 192.593 112.827Z" fill="#C2AC96"/>
<path d="M211.11 121.272C210.834 121.272 210.607 121.043 210.607 120.764V113.532C210.607 113.253 210.834 113.024 211.11 113.024C211.386 113.024 211.613 113.253 211.613 113.532V120.764C211.613 121.043 211.386 121.272 211.11 121.272Z" fill="#C2AC96"/>
<path d="M222.168 113.434H186.099C185.824 113.434 185.597 113.204 185.597 112.925C185.597 112.647 185.824 112.417 186.099 112.417H222.168C222.444 112.417 222.671 112.647 222.671 112.925C222.671 113.204 222.444 113.434 222.168 113.434Z" fill="#C2AC96"/>
<path d="M221.69 121.272H195.877C195.601 121.272 195.374 121.043 195.374 120.764C195.374 120.485 195.601 120.255 195.877 120.255H221.69C221.965 120.255 222.192 120.485 222.192 120.764C222.192 121.043 221.965 121.272 221.69 121.272Z" fill="#C2AC96"/>
<path d="M60.2441 157.356C60.2441 159.734 86.3491 161.661 118.551 161.661C150.752 161.661 176.857 159.734 176.857 157.356C176.857 154.979 150.752 153.052 118.551 153.052C86.341 153.052 60.2441 154.979 60.2441 157.356Z" fill="#C2AC96"/>
<path d="M74.3344 145.5C75.3722 146.55 76.5072 147.558 77.7313 148.509C83.8603 153.265 92.3323 156.684 103.585 157.824C161.146 163.645 180.157 136.342 184.81 94.3301C186.878 75.6035 182.03 63.2557 176.022 55.3108C175.39 54.4827 174.75 53.6956 174.109 52.9659C173.744 52.5477 173.371 52.146 172.982 51.7524C165.216 43.7338 154.011 39.9622 143.002 41.7906C134.344 43.2336 126.488 47.9071 120.107 57.254C109.909 72.1927 119.556 85.0406 90.3947 85.9015C68.0838 86.541 53.9369 124.921 74.3344 145.5Z" fill="#FABD20"/>
<path d="M133.857 66.6337C138.057 57.0244 151.263 56.2127 156.565 65.2399C159.978 71.053 162.11 79.6784 158.576 91.8212C150.72 118.853 135.803 117.779 132.892 118.116C119.532 119.657 94.8293 119.116 90.5406 107.572C87.0707 98.2165 100.342 92.5755 116.775 91.2719C127.104 90.4438 129.374 76.8989 133.857 66.6337Z" fill="#E5A501"/>
<path d="M157.003 128.143C157.133 128.143 157.262 128.094 157.36 127.987C157.546 127.79 157.538 127.479 157.343 127.29C151.466 121.641 145.856 118.312 142.183 116.517C138.186 114.565 135.616 113.959 135.511 113.934C135.243 113.877 134.984 114.041 134.927 114.303C134.87 114.574 135.033 114.836 135.292 114.893C135.414 114.918 145.637 117.394 156.671 128.004C156.76 128.102 156.881 128.143 157.003 128.143Z" fill="#E5A501"/>
<path d="M155.057 121.526C155.211 121.526 155.365 121.453 155.463 121.305C155.617 121.075 155.552 120.772 155.333 120.616C155.106 120.46 149.634 116.795 141.17 115.861C140.902 115.828 140.659 116.025 140.627 116.295C140.594 116.566 140.789 116.812 141.056 116.845C149.285 117.755 154.725 121.403 154.782 121.436C154.871 121.502 154.968 121.526 155.057 121.526Z" fill="#E5A501"/>
<path d="M159.395 80.7197C159.638 80.7197 159.849 80.5393 159.881 80.2852C160.594 74.554 163.027 70.1839 164.948 67.5192C167.031 64.625 168.977 63.0672 169.002 63.0508C169.212 62.8786 169.253 62.567 169.083 62.3538C168.912 62.1407 168.612 62.0997 168.394 62.2718C168.312 62.3374 166.342 63.9117 164.178 66.9125C162.183 69.6756 159.654 74.2179 158.908 80.1704C158.876 80.4409 159.062 80.6869 159.33 80.7197C159.354 80.7197 159.37 80.7197 159.395 80.7197Z" fill="#E5A501"/>
<path d="M74.3345 145.5C75.3722 146.55 76.5072 147.558 77.7314 148.509C84.817 152.814 93.4592 155.643 102.977 156.749C105.928 157.094 108.911 157.266 111.895 157.266C120.116 157.266 128.352 155.971 136.119 153.429C156.322 146.812 170.899 132.652 177.165 113.557C180.603 103.087 182.289 92.9117 182.176 83.3024C182.086 75.6035 180.862 68.2571 178.519 61.4601C177.741 59.189 176.89 57.1474 176.03 55.3108C175.398 54.4827 174.758 53.6956 174.117 52.9659C173.752 52.5477 173.379 52.146 172.99 51.7524C174.523 54.4089 176.168 57.7869 177.571 61.8619C181.178 72.3731 183.878 89.8206 176.193 113.229C170.031 131.997 155.69 145.919 135.811 152.429C114.692 159.349 90.2569 156.545 75.0155 145.451C74.7966 145.295 74.5128 145.32 74.3345 145.5Z" fill="#E5A501"/>
<path d="M117.845 45.8409C126.009 45.7671 134.044 50.2028 141.745 44.8242C141.445 43.0532 140.448 26.5567 140.594 24.0396C140.87 19.0628 139.978 5.19819 129.836 4.77184C119.694 4.35369 112.722 11.8394 115.867 20.719C117.237 24.5971 118.162 40.8723 117.845 45.8409Z" fill="#131E07"/>
<path d="M85.0602 85.0569C83.6901 82.4004 84.7034 79.1208 87.3383 77.7352C87.3707 77.7188 90.5568 76.038 94.0105 73.9144C100.002 70.2331 101.315 68.6424 101.453 68.4621C104.615 63.2229 109.025 49.0467 110.468 44.0207C111.287 41.1428 114.27 39.4784 117.116 40.3147C119.961 41.1428 121.607 44.1601 120.78 47.0379C120.213 49.0385 115.073 66.7813 110.581 74.185C109.576 75.8494 107.436 78.3583 99.8152 83.0564C95.9562 85.4341 92.4539 87.2871 92.308 87.3691C91.6432 87.7216 90.9378 87.9184 90.2325 87.9676C88.149 88.1152 86.0817 87.0411 85.0602 85.0569Z" fill="#B96F38"/>
<path d="M106.406 73.2175C106.479 73.2503 106.56 73.2503 106.625 73.2011C106.731 73.1355 106.763 72.9879 106.698 72.8731C105.028 70.192 102.061 68.503 101.939 68.4374C101.826 68.3718 101.688 68.4128 101.623 68.5276C101.558 68.6424 101.599 68.7818 101.712 68.8474C101.745 68.8638 104.696 70.5446 106.301 73.1273C106.333 73.1683 106.366 73.1929 106.406 73.2175Z" fill="#6B2D18"/>
<path d="M102.499 69.2082C102.555 69.2328 102.628 69.241 102.685 69.2082C103.844 68.6999 105.369 69.1754 105.385 69.1836C105.506 69.2246 105.636 69.1508 105.677 69.0279C105.717 68.9049 105.644 68.7737 105.523 68.7327C105.45 68.7081 103.812 68.1916 102.491 68.7737C102.369 68.8229 102.32 68.9623 102.369 69.0853C102.409 69.1426 102.45 69.1836 102.499 69.2082Z" fill="#6B2D18"/>
<path d="M110.963 90.2142C111.562 90.3782 112.154 90.534 112.746 90.6816C112.989 90.7471 113.241 90.8045 113.484 90.8619C123.123 93.1249 131.498 92.8051 136.792 92.1574C137.051 92.1246 137.303 92.0918 137.546 92.059C140.643 91.6326 142.524 91.1243 142.751 91.0587C142.759 91.0587 142.767 91.0587 142.775 91.0505C142.264 88.7138 142.029 87.6643 141.899 85.3276C141.867 84.6716 141.835 84.0403 141.818 83.4418C141.786 82.3185 141.778 81.2936 141.786 80.4573V80.4081C141.786 79.8424 141.802 79.3587 141.81 78.9733C138.113 78.2682 131.311 77.0301 124.996 76.243C120.415 75.6691 116.102 75.3329 113.427 75.6035L113.273 76.612L113.046 78.096L112.851 79.2111L112.438 81.6462L111.003 90.042L110.963 90.2142Z" fill="#B96F38"/>
<path d="M141.964 86.2868C141.964 86.2868 120.991 88.8039 112.073 83.3597C112.073 83.3597 110.136 92.3541 110.306 94.74C110.711 100.455 142.378 99.1921 143.172 93.6004C143.521 91.1324 141.964 86.2868 141.964 86.2868Z" fill="#131E07"/>
<path d="M123.107 81.6462C123.115 82.4497 123.391 83.0974 123.715 83.0892C124.039 83.0892 124.299 82.4333 124.291 81.6298C124.283 80.8262 124.007 80.1785 123.683 80.1867C123.358 80.1867 123.099 80.8426 123.107 81.6462Z" fill="#6B2D18"/>
<path d="M113.038 78.096C115.251 78.26 118.186 78.547 121.477 79.0635C127.825 80.0638 135.503 81.9086 141.891 85.3276C141.859 84.6717 141.826 84.0403 141.81 83.4418C141.778 82.3185 141.77 81.2936 141.778 80.4573V80.4081C141.778 79.8424 141.794 79.3587 141.802 78.9733C138.105 78.2682 131.303 77.0301 124.988 76.243C120.407 75.6691 116.094 75.3329 113.419 75.6035L113.265 76.612L113.038 78.096Z" fill="#6B2D18"/>
<path d="M111.489 77.0301C111.489 77.0301 111.157 78.5552 112.868 79.2193L113.265 76.612C113.265 76.6038 111.976 76.7186 111.489 77.0301Z" fill="#D7C4AC"/>
<path d="M141.818 83.4336C145.426 83.2778 144.721 81.2198 144.721 81.2198L144.696 81.2116L141.786 80.3917V80.4409L141.818 83.4336Z" fill="#D7C4AC"/>
<path d="M107.152 63.4201C107.168 63.6579 107.193 63.9039 107.241 64.1498C107.258 64.2482 107.282 64.3466 107.298 64.445C107.874 66.9293 110.273 69.963 111.352 71.119C111.481 71.2584 111.595 71.3732 111.684 71.4552C111.733 71.4962 111.773 71.5372 111.814 71.57C111.927 71.6684 111.984 71.7258 111.984 71.7258C111.984 71.7422 111.984 71.7586 111.984 71.775C111.976 71.8898 111.976 72.0127 111.968 72.1357C111.96 72.3489 111.943 72.5785 111.919 72.8244C111.895 73.1442 111.87 73.4886 111.83 73.8575L111.822 73.9149C111.773 74.4315 111.716 74.989 111.652 75.5875C111.603 76.0467 111.546 76.5304 111.481 77.0306C111.481 77.0306 111.481 77.0306 111.489 77.0306C112.049 76.8666 112.641 76.7272 113.257 76.6124C116.508 76.0221 120.513 76.1615 124.631 76.678C130.833 77.4569 137.286 79.1049 141.77 80.4086C142.872 80.7283 143.853 81.0235 144.68 81.2859V81.2285C144.631 80.6135 144.599 80.015 144.567 79.4247C144.494 77.9735 144.469 76.6124 144.486 75.317C144.502 74.1117 144.558 72.9802 144.648 71.9143C144.648 71.8898 144.648 71.8652 144.656 71.8488C144.891 68.9299 145.653 64.7894 146.756 60.4357C146.893 59.8781 147.047 59.3042 147.201 58.7385C147.242 58.5745 147.291 58.4105 147.339 58.2547C147.364 58.1645 147.388 58.0744 147.412 57.9842C147.428 57.9104 147.453 57.8448 147.469 57.771C147.526 57.5578 147.591 57.3528 147.647 57.1397C147.704 56.9347 147.769 56.7297 147.826 56.5247C147.939 56.1394 148.053 55.7622 148.174 55.3851C148.247 55.1555 148.312 54.9259 148.385 54.7045C148.62 53.9666 148.863 53.2287 149.115 52.5072C149.261 52.0808 149.407 51.6463 149.528 51.2117C149.634 50.8674 149.723 50.523 149.812 50.1705C149.901 49.8261 149.982 49.4817 150.055 49.1374C150.088 48.9652 150.12 48.793 150.152 48.6208C150.25 48.1043 150.323 47.5878 150.379 47.0876C150.485 46.0791 150.509 45.0952 150.428 44.1524C150.412 44.013 150.404 43.8654 150.388 43.726C150.388 43.7178 150.388 43.7096 150.388 43.7014C150.371 43.5538 150.347 43.4062 150.323 43.2669C150.315 43.1931 150.298 43.1193 150.282 43.0537L150.242 42.8405C150.225 42.7667 150.209 42.7011 150.193 42.6273V42.6191C150.185 42.5699 150.169 42.5289 150.161 42.4798C150.152 42.4552 150.152 42.4388 150.144 42.4142C150.128 42.3486 150.112 42.2912 150.096 42.2256C150.071 42.1436 150.047 42.0616 150.023 41.9796C149.966 41.791 149.909 41.6107 149.836 41.4303C149.836 41.4221 149.828 41.4139 149.828 41.4057C149.804 41.3401 149.779 41.2745 149.747 41.2089C149.723 41.1433 149.69 41.0777 149.666 41.0203C149.634 40.9547 149.609 40.8891 149.577 40.8235C149.52 40.7088 149.463 40.5858 149.398 40.471C149.358 40.4054 149.325 40.3398 149.285 40.2742C149.253 40.2168 149.22 40.1676 149.188 40.1184C149.115 40.0036 149.042 39.8889 148.961 39.7741C148.92 39.7167 148.88 39.6675 148.839 39.6101C148.807 39.5691 148.774 39.5199 148.742 39.4789C148.734 39.4625 148.717 39.4461 148.701 39.4297C148.669 39.3887 148.628 39.3395 148.596 39.2985C148.499 39.1837 148.393 39.0689 148.288 38.9542C148.247 38.9132 148.207 38.8722 148.166 38.8312C148.118 38.782 148.069 38.7328 148.012 38.6836C147.963 38.6344 147.907 38.5934 147.858 38.5442C147.809 38.495 147.753 38.454 147.696 38.4048C147.663 38.372 147.623 38.3474 147.582 38.3146C147.266 38.0687 146.926 37.8473 146.545 37.6505C146.496 37.6259 146.447 37.6013 146.399 37.5767C146.293 37.5275 146.188 37.4701 146.075 37.4209C146.026 37.3963 145.969 37.3717 145.92 37.3553C145.693 37.257 145.45 37.1668 145.199 37.0848C145.183 37.0766 145.167 37.0766 145.15 37.0684C145.085 37.0438 145.012 37.0274 144.948 37.0028C144.85 36.9782 144.753 36.9454 144.656 36.9208C144.413 36.8552 144.169 36.7978 143.934 36.7322C143.691 36.6748 143.456 36.6092 143.229 36.5518C140.286 35.8303 137.813 35.3712 136.905 35.2072C136.84 35.199 136.784 35.1826 136.735 35.1744C136.703 35.1662 136.678 35.1662 136.654 35.158C136.646 35.158 136.646 35.158 136.638 35.158C136.622 35.1498 136.605 35.1498 136.589 35.1498C136.581 35.1498 136.581 35.1498 136.581 35.1498C136.573 35.1498 136.557 35.1498 136.549 35.1416C136.541 35.1416 136.532 35.1416 136.532 35.1416L135.333 35.322L124.234 37.0192L123.861 37.0766L123.18 37.1832L122.904 37.2242L121.607 37.4209C119.71 37.7653 118.162 38.1179 116.897 38.4868C115.786 38.8148 114.894 39.1591 114.173 39.5445C113.63 39.8315 113.184 40.143 112.819 40.4792C112.787 40.5038 112.754 40.5366 112.73 40.5694C112.616 40.676 112.511 40.7907 112.422 40.8973C112.397 40.9219 112.373 40.9547 112.349 40.9793C112.114 41.2663 111.927 41.5779 111.765 41.9058C111.733 41.9796 111.692 42.0534 111.66 42.1272C111.595 42.283 111.538 42.4388 111.481 42.5945C111.457 42.6601 111.441 42.7175 111.416 42.7831C111.384 42.8815 111.352 42.9881 111.327 43.0947C111.295 43.2095 111.271 43.3243 111.246 43.4472C111.214 43.5784 111.189 43.7178 111.157 43.8572C111.133 43.972 111.117 44.0786 111.1 44.2016C111.084 44.2999 111.068 44.3901 111.052 44.4967C111.003 44.8329 110.954 45.1854 110.914 45.5626C110.906 45.661 110.89 45.7676 110.881 45.866C110.873 45.948 110.865 46.0381 110.857 46.1201C110.849 46.2185 110.833 46.3169 110.825 46.4153C110.784 46.7925 110.744 47.1942 110.695 47.6124C110.695 47.6288 110.695 47.6452 110.687 47.6616C110.679 47.7435 110.671 47.8337 110.654 47.9239C110.646 47.9731 110.646 48.0223 110.638 48.0715C110.63 48.1289 110.622 48.1863 110.622 48.2437C110.614 48.3257 110.606 48.3995 110.598 48.4815C110.598 48.5061 110.59 48.5389 110.59 48.5634C110.492 49.3506 110.371 50.1295 110.225 50.9002C110.217 50.9494 110.209 50.9986 110.192 51.0478C110.038 51.8595 109.86 52.663 109.665 53.4501C108.547 58.1809 106.974 60.6161 107.152 63.4201Z" fill="white"/>
<path d="M144.299 38.6913C144.34 39.6506 145.134 40.3967 146.083 40.3557C147.031 40.3147 147.769 39.5112 147.728 38.5519C147.728 38.5027 147.72 38.4453 147.712 38.3961C147.031 37.8386 146.204 37.3958 145.223 37.076C144.656 37.3794 144.275 37.9943 144.299 38.6913Z" fill="#D7C4AC"/>
<path d="M138.348 39.6506C138.389 40.6099 139.183 41.356 140.132 41.315C141.081 41.274 141.818 40.4705 141.778 39.5112C141.737 38.5519 140.943 37.8058 139.994 37.8468C139.054 37.8878 138.316 38.6913 138.348 39.6506Z" fill="#D7C4AC"/>
<path d="M132.373 40.4294C132.414 41.3887 133.208 42.1348 134.157 42.0938C135.106 42.0528 135.843 41.2493 135.803 40.29C135.762 39.3308 134.968 38.5846 134.019 38.6256C133.071 38.6666 132.333 39.4701 132.373 40.4294Z" fill="#D7C4AC"/>
<path d="M126.358 41.0198C126.399 41.979 127.193 42.7252 128.142 42.6842C129.09 42.6432 129.828 41.8397 129.787 40.8804C129.747 39.9211 128.952 39.175 128.004 39.216C127.055 39.2488 126.317 40.0605 126.358 41.0198Z" fill="#D7C4AC"/>
<path d="M120.31 41.397C120.351 42.3562 121.145 43.1024 122.094 43.0614C123.042 43.0204 123.78 42.2169 123.739 41.2576C123.699 40.2983 122.904 39.5522 121.956 39.5932C121.007 39.626 120.269 40.4377 120.31 41.397Z" fill="#D7C4AC"/>
<path d="M114.222 41.5609C114.262 42.5202 115.057 43.2663 116.005 43.2253C116.954 43.1843 117.691 42.3808 117.651 41.4215C117.61 40.4622 116.816 39.7161 115.867 39.7571C114.919 39.7981 114.181 40.6016 114.222 41.5609Z" fill="#D7C4AC"/>
<path d="M145.377 47.5873C145.385 48.5466 146.156 49.3173 147.104 49.3091C148.053 49.3009 148.815 48.522 148.807 47.5627C148.799 46.6034 148.028 45.8327 147.08 45.8409C146.131 45.8491 145.369 46.628 145.377 47.5873Z" fill="#D7C4AC"/>
<path d="M139.492 48.2842C139.5 49.2435 140.27 50.0142 141.218 50.006C142.167 49.9978 142.929 49.2189 142.921 48.2596C142.913 47.3003 142.143 46.5296 141.194 46.5378C140.245 46.546 139.483 47.3249 139.492 48.2842Z" fill="#D7C4AC"/>
<path d="M133.492 48.8417C133.5 49.801 134.271 50.5717 135.219 50.5635C136.168 50.5553 136.93 49.7764 136.922 48.8171C136.913 47.8578 136.143 47.0871 135.195 47.0953C134.246 47.1035 133.484 47.8824 133.492 48.8417Z" fill="#D7C4AC"/>
<path d="M127.388 49.2517C127.396 50.211 128.166 50.9817 129.114 50.9735C130.063 50.9653 130.825 50.1864 130.817 49.2271C130.809 48.2678 130.039 47.4971 129.09 47.5053C128.15 47.5135 127.388 48.2924 127.388 49.2517Z" fill="#D7C4AC"/>
<path d="M121.226 49.4895C121.234 50.4488 122.004 51.2195 122.953 51.2113C123.901 51.2031 124.664 50.4242 124.655 49.4649C124.647 48.5056 123.877 47.7349 122.929 47.7431C121.98 47.7431 121.218 48.5302 121.226 49.4895Z" fill="#D7C4AC"/>
<path d="M115.016 49.5304C115.024 50.4897 115.794 51.2604 116.743 51.2522C117.691 51.244 118.453 50.4651 118.445 49.5058C118.437 48.5465 117.667 47.7758 116.719 47.784C115.778 47.784 115.016 48.5711 115.016 49.5304Z" fill="#D7C4AC"/>
<path d="M110.225 51.0637C110.322 51.0801 110.427 51.0883 110.525 51.0883C111.473 51.0801 112.235 50.3012 112.227 49.3419C112.219 48.4646 111.571 47.7431 110.727 47.6365C110.703 47.8415 110.679 48.0464 110.654 48.2596C110.646 48.3334 110.638 48.4154 110.63 48.4974C110.63 48.522 110.622 48.5548 110.622 48.5794C110.525 49.3665 110.403 50.1454 110.257 50.9161C110.249 50.9571 110.241 51.0063 110.225 51.0637Z" fill="#D7C4AC"/>
<path d="M147.412 57.9754C147.428 57.9016 147.453 57.8361 147.469 57.7623C147.526 57.5491 147.591 57.3441 147.647 57.1309C147.882 56.311 148.126 55.4993 148.385 54.6958C148.32 54.6876 148.255 54.6794 148.19 54.6794C147.242 54.6548 146.456 55.4091 146.431 56.3684C146.423 57.0653 146.828 57.6885 147.412 57.9754Z" fill="#D7C4AC"/>
<path d="M140.626 56.7948C140.602 57.7541 141.348 58.5494 142.297 58.574C143.245 58.5986 144.032 57.8443 144.056 56.885C144.08 55.9257 143.334 55.1304 142.386 55.1058C141.437 55.0812 140.651 55.8355 140.626 56.7948Z" fill="#D7C4AC"/>
<path d="M134.603 57.1391C134.579 58.0984 135.324 58.8937 136.273 58.9183C137.222 58.9429 138.008 58.1886 138.032 57.2293C138.057 56.27 137.311 55.4747 136.362 55.4501C135.414 55.4173 134.627 56.1798 134.603 57.1391Z" fill="#D7C4AC"/>
<path d="M128.417 57.3605C128.393 58.3198 129.139 59.1151 130.087 59.1397C131.036 59.1643 131.822 58.41 131.846 57.4507C131.871 56.4914 131.125 55.6961 130.176 55.6715C129.228 55.6469 128.441 56.4094 128.417 57.3605Z" fill="#D7C4AC"/>
<path d="M122.134 57.4507C122.11 58.41 122.856 59.2053 123.804 59.2299C124.753 59.2545 125.539 58.5002 125.563 57.5409C125.588 56.5816 124.842 55.7863 123.893 55.7617C122.945 55.7371 122.158 56.4914 122.134 57.4507Z" fill="#D7C4AC"/>
<path d="M115.811 57.3769C115.786 58.3362 116.532 59.1315 117.481 59.1561C118.429 59.1807 119.216 58.4264 119.24 57.4671C119.264 56.5078 118.518 55.7125 117.57 55.6879C116.621 55.6551 115.835 56.4176 115.811 57.3769Z" fill="#D7C4AC"/>
<path d="M109.495 57.1063C109.471 58.0656 110.217 58.8609 111.165 58.8855C112.114 58.9101 112.9 58.1558 112.924 57.1965C112.949 56.2372 112.203 55.4419 111.254 55.4173C110.306 55.3845 109.519 56.147 109.495 57.1063Z" fill="#D7C4AC"/>
<path d="M141.745 65.1167C141.689 66.076 142.418 66.8959 143.359 66.9451C144.307 67.0025 145.118 66.2646 145.167 65.3135C145.223 64.3542 144.494 63.5343 143.553 63.4851C142.613 63.4277 141.802 64.1574 141.745 65.1167Z" fill="#D7C4AC"/>
<path d="M135.697 65.2398C135.641 66.199 136.37 67.019 137.311 67.0682C138.259 67.1255 139.07 66.3876 139.119 65.4365C139.175 64.4772 138.446 63.6573 137.505 63.6081C136.565 63.5508 135.754 64.2805 135.697 65.2398Z" fill="#D7C4AC"/>
<path d="M129.439 65.289C129.382 66.2482 130.112 67.0681 131.052 67.1173C132 67.1747 132.811 66.4368 132.86 65.4857C132.917 64.5264 132.187 63.7065 131.247 63.6573C130.298 63.5999 129.487 64.3297 129.439 65.289Z" fill="#D7C4AC"/>
<path d="M123.034 65.2316C122.977 66.1909 123.707 67.0108 124.647 67.06C125.596 67.1174 126.407 66.3794 126.455 65.4284C126.512 64.4691 125.782 63.6492 124.842 63.6C123.901 63.5426 123.091 64.2723 123.034 65.2316Z" fill="#D7C4AC"/>
<path d="M116.589 65.0348C116.532 65.9941 117.262 66.814 118.202 66.8632C119.151 66.9206 119.961 66.1827 120.01 65.2316C120.067 64.2723 119.337 63.4524 118.397 63.4032C117.456 63.3458 116.646 64.0755 116.589 65.0348Z" fill="#D7C4AC"/>
<path d="M110.176 64.6576C110.119 65.6169 110.849 66.4368 111.789 66.486C112.738 66.5434 113.549 65.8055 113.597 64.8544C113.654 63.8951 112.924 63.0752 111.984 63.026C111.044 62.9686 110.233 63.6983 110.176 64.6576Z" fill="#D7C4AC"/>
<path d="M144.429 75.3082C144.453 75.3082 144.469 75.3082 144.494 75.3164C144.51 74.1111 144.567 72.9796 144.656 71.9137C144.656 71.8892 144.656 71.8646 144.664 71.8482C143.748 71.799 142.953 72.4959 142.872 73.4306C142.783 74.3817 143.48 75.218 144.429 75.3082Z" fill="#D7C4AC"/>
<path d="M136.8 73.324C136.719 74.2833 137.416 75.1278 138.357 75.2098C139.297 75.2918 140.14 74.5866 140.221 73.6355C140.302 72.6763 139.605 71.8318 138.665 71.7498C137.716 71.6678 136.881 72.3729 136.8 73.324Z" fill="#D7C4AC"/>
<path d="M130.452 73.201C130.371 74.1603 131.068 75.0048 132.009 75.0868C132.957 75.1688 133.792 74.4637 133.873 73.5126C133.954 72.5533 133.257 71.7088 132.317 71.6268C131.368 71.5366 130.533 72.2417 130.452 73.201Z" fill="#D7C4AC"/>
<path d="M123.934 72.9961C123.853 73.9553 124.55 74.7998 125.49 74.8818C126.439 74.9638 127.274 74.2587 127.355 73.3076C127.436 72.3483 126.739 71.5038 125.799 71.4218C124.858 71.3316 124.023 72.0368 123.934 72.9961Z" fill="#D7C4AC"/>
<path d="M117.367 72.6762C117.286 73.6355 117.983 74.48 118.924 74.562C119.864 74.644 120.707 73.9389 120.788 72.9878C120.869 72.0285 120.172 71.184 119.232 71.102C118.283 71.0118 117.448 71.7169 117.367 72.6762Z" fill="#D7C4AC"/>
<path d="M111.838 73.857L111.83 73.9143C112.008 74.0045 112.211 74.0619 112.422 74.0783C113.37 74.1603 114.205 73.4552 114.286 72.5041C114.367 71.5448 113.67 70.7003 112.73 70.6183C112.203 70.5691 111.708 70.7741 111.36 71.1267C111.489 71.2661 111.603 71.3808 111.692 71.4628C111.879 71.6432 111.992 71.7334 111.992 71.7334C111.992 71.7498 111.992 71.7662 111.992 71.7826C111.984 71.8974 111.984 72.0204 111.976 72.1433C111.943 72.6271 111.895 73.201 111.838 73.857Z" fill="#D7C4AC"/>
<path d="M126.617 45.7343C126.488 45.7425 126.358 45.7425 126.236 45.7343C125.053 45.6687 124.145 45.2014 123.553 44.3323C121.81 41.807 123.326 36.7891 123.391 36.576C123.439 36.4038 123.618 36.3136 123.788 36.3628C123.958 36.412 124.047 36.5924 123.999 36.7645C123.983 36.8137 122.515 41.7004 124.08 43.9633C124.566 44.6684 125.288 45.0374 126.277 45.0866C130.428 45.308 136.419 35.3789 136.476 35.2805C136.565 35.1329 136.759 35.0837 136.913 35.1739C137.059 35.2641 137.108 35.4609 137.019 35.6167C136.759 36.0348 131.084 45.4309 126.617 45.7343Z" fill="#D5963D"/>
<path d="M131.992 72.2911C131.944 72.3977 131.838 72.4632 131.725 72.4714C131.668 72.4714 131.619 72.4632 131.563 72.4386C131.506 72.414 126.171 69.8314 119.97 71.504C116.824 72.3485 114.1 72.4714 111.968 72.1435C111.976 72.0123 111.984 71.8975 111.984 71.7827C111.984 71.7663 111.984 71.7499 111.984 71.7335C111.984 71.7335 111.87 71.6351 111.684 71.463C113.776 71.8483 116.54 71.7663 119.807 70.889C126.244 69.159 131.619 71.7581 131.838 71.8729C132.001 71.9385 132.065 72.1353 131.992 72.2911Z" fill="#D7C4AC"/>
<path d="M123.537 80.3753C123.602 79.4242 123.148 78.5142 122.369 77.9894C122.102 77.809 121.818 77.6779 121.567 77.7188C120.894 77.8254 121.105 78.9897 121.105 78.9897C121.105 78.9897 119.556 78.4322 119.483 79.6948C119.41 80.9575 121.25 81.1542 121.25 81.1542C121.25 81.1542 123.407 82.1955 123.537 80.3999C123.537 80.3999 123.537 80.3917 123.537 80.3753Z" fill="#A36A24"/>
<path d="M136.468 80.654C136.532 79.7029 136.078 78.7928 135.3 78.2681C135.033 78.0877 134.749 77.9565 134.498 77.9975C133.825 78.1041 134.035 79.2684 134.035 79.2684C134.035 79.2684 132.487 78.7109 132.414 79.9735C132.341 81.2362 134.181 81.4329 134.181 81.4329C134.181 81.4329 136.338 82.4742 136.468 80.6786C136.468 80.6786 136.468 80.6622 136.468 80.654Z" fill="#A36A24"/>
<path d="M131.709 81.0887C132.074 80.2114 131.944 79.2029 131.376 78.4404C131.182 78.178 130.955 77.9649 130.712 77.9157C130.039 77.7927 129.86 78.9651 129.86 78.9651C129.86 78.9651 128.579 77.9239 128.093 79.0963C127.606 80.2688 129.285 81.0641 129.285 81.0641C129.285 81.0641 130.979 82.7613 131.684 81.1133C131.701 81.1051 131.709 81.0969 131.709 81.0887Z" fill="#A36A24"/>
<path d="M126.95 80.9493C127.315 80.072 127.185 79.0635 126.617 78.301C126.423 78.0386 126.196 77.8254 125.953 77.7763C125.28 77.6533 125.101 78.8257 125.101 78.8257C125.101 78.8257 123.82 77.7845 123.334 78.9569C122.848 80.1294 124.526 80.9247 124.526 80.9247C124.526 80.9247 126.22 82.6219 126.925 80.9739C126.942 80.9739 126.95 80.9575 126.95 80.9493Z" fill="#A36A24"/>
<path d="M118.786 81.4986C119.151 80.6213 119.021 79.6128 118.454 78.8503C118.259 78.5879 118.032 78.3748 117.789 78.3256C117.116 78.2026 116.937 79.375 116.937 79.375C116.937 79.375 115.657 78.3338 115.17 79.5062C114.684 80.6787 116.362 81.474 116.362 81.474C116.362 81.474 118.056 83.1712 118.762 81.5232C118.778 81.5232 118.786 81.5068 118.786 81.4986Z" fill="#A36A24"/>
<path d="M131.255 78.9733C131.863 78.2518 132.811 77.9074 133.736 78.0796C134.052 78.137 134.344 78.2436 134.498 78.4486C134.903 78.9979 133.954 79.6866 133.954 79.6866C133.954 79.6866 135.454 80.3753 134.635 81.3346C133.817 82.2939 132.357 81.1378 132.357 81.1378C132.357 81.1378 130.095 80.3671 131.23 78.9897C131.238 78.9897 131.247 78.9815 131.255 78.9733Z" fill="#D5963D"/>
<path d="M129.123 80.7934C129.187 79.8423 128.733 78.9322 127.955 78.4075C127.688 78.2271 127.404 78.0959 127.152 78.1369C126.48 78.2435 126.69 79.4078 126.69 79.4078C126.69 79.4078 125.142 78.8503 125.069 80.1129C124.996 81.3756 126.836 81.5723 126.836 81.5723C126.836 81.5723 128.993 82.6136 129.123 80.818C129.114 80.8098 129.114 80.8016 129.123 80.7934Z" fill="#D5963D"/>
<path d="M121.364 80.3753C121.429 79.4242 120.975 78.5142 120.197 77.9894C119.929 77.809 119.645 77.6779 119.394 77.7188C118.721 77.8254 118.932 78.9897 118.932 78.9897C118.932 78.9897 117.383 78.4322 117.31 79.6948C117.237 80.9575 119.078 81.1542 119.078 81.1542C119.078 81.1542 121.234 82.1955 121.364 80.3999C121.364 80.3999 121.364 80.3917 121.364 80.3753Z" fill="#D5963D"/>
<path d="M121.575 79.8178C121.64 78.8667 122.207 78.0304 123.05 77.6122C123.334 77.4729 123.642 77.3827 123.877 77.4564C124.526 77.6532 124.161 78.7765 124.161 78.7765C124.161 78.7765 125.766 78.4321 125.677 79.703C125.58 80.9656 123.731 80.9083 123.731 80.9083C123.731 80.9083 121.461 81.6462 121.567 79.8506C121.575 79.8424 121.575 79.8342 121.575 79.8178Z" fill="#D5963D"/>
<path d="M133.59 81.4576V104.866H134.4L136.784 81.0067C136.613 80.1704 135.973 79.5554 135.211 79.5554C134.765 79.5554 134.36 79.7686 134.068 80.113C133.776 80.4491 133.59 80.9329 133.59 81.4576Z" fill="#A5410F"/>
<path d="M130.444 104.866H133.687V81.4576C133.687 80.3999 132.957 79.5472 132.065 79.5472C131.166 79.5472 130.444 80.3999 130.444 81.4576V104.866Z" fill="#F1EADC"/>
<path d="M127.29 104.866H130.533V81.4576C130.533 80.3999 129.803 79.5472 128.912 79.5472C128.012 79.5472 127.29 80.3999 127.29 81.4576V104.866Z" fill="#A5410F"/>
<path d="M124.145 104.866H127.388V81.4576C127.388 80.3999 126.658 79.5472 125.766 79.5472C124.866 79.5472 124.145 80.3999 124.145 81.4576V104.866Z" fill="#F1EADC"/>
<path d="M120.991 104.866H124.234V81.4576C124.234 80.3999 123.504 79.5472 122.612 79.5472C121.713 79.5472 120.991 80.3999 120.991 81.4576V104.866Z" fill="#A5410F"/>
<path d="M115.073 80.1048C114.927 80.277 114.814 80.4737 114.733 80.6951L117.149 104.858H117.838V81.4576C117.838 80.3999 117.116 79.5472 116.217 79.5472C115.771 79.5472 115.365 79.7604 115.073 80.1048Z" fill="#A5410F"/>
<path d="M114.603 81.4413L114.684 80.8591C114.627 81.0395 114.603 81.2363 114.603 81.4413Z" fill="#A5410F"/>
<path d="M117.845 104.866H121.088V81.4576C121.088 80.3999 120.359 79.5472 119.467 79.5472C118.567 79.5472 117.845 80.3999 117.845 81.4576V104.866Z" fill="#F1EADC"/>
<path d="M114.684 80.8591C114.7 80.8017 114.717 80.7525 114.733 80.7033L114.725 80.5803L114.684 80.8591Z" fill="#A5410F"/>
<path d="M157.254 107.244C157.254 107.244 159.905 105.456 161.754 107.08C163.602 108.703 163.124 111.228 165.532 112.852C167.939 114.475 176.622 119.436 175.901 125.044L167.623 117.894C167.623 117.894 159.751 112.122 157.254 107.244Z" fill="#F1EADC"/>
<path d="M146.066 115.697C146.066 115.697 146.877 115.877 148.199 116.205C148.572 116.295 148.993 116.402 149.439 116.508C150.039 116.656 150.696 116.828 151.393 117.009C151.79 117.115 152.204 117.222 152.633 117.337C157.927 118.755 164.924 120.87 167.704 122.789C167.899 122.928 168.085 123.06 168.272 123.191C172.504 126.29 173.306 128.864 174.125 128.373C174.985 127.864 175.244 125.667 173.931 124.166C173.015 123.125 172.406 121.641 171.182 120.009C170.85 119.567 170.477 119.116 170.047 118.665C168.126 116.656 165.005 114.541 163.278 112.934C163.164 112.827 163.059 112.729 162.962 112.63C161.543 111.212 161.073 108.383 158.43 107.44C157.141 106.981 155.568 107.088 154.044 107.432C153.776 107.498 153.501 107.563 153.241 107.637C152.844 107.752 152.455 107.875 152.082 108.006C151.563 108.195 151.069 108.383 150.623 108.58C150.193 108.769 149.796 108.949 149.463 109.113C148.644 109.506 148.142 109.81 148.142 109.81L146.066 115.697Z" fill="#B96F38"/>
<path d="M164.81 113.991C164.81 113.991 165.532 119.108 160.951 119.928C160.951 119.928 167.623 126.306 171.077 128.422C174.531 130.537 177.911 126.347 174.693 122.371C171.482 118.378 164.81 113.991 164.81 113.991Z" fill="#F1EADC"/>
<path d="M175.617 124.298C175.649 124.298 175.674 124.29 175.706 124.281C175.844 124.232 175.917 124.085 175.868 123.945C175.803 123.765 174.263 119.403 165.215 114.139C165.094 114.065 164.924 114.106 164.851 114.237C164.778 114.369 164.818 114.533 164.948 114.606C173.785 119.747 175.341 124.076 175.358 124.117C175.406 124.224 175.503 124.298 175.617 124.298Z" fill="#C2AC96"/>
<path d="M107.89 135.776C107.89 135.776 104.704 135.957 104.193 138.384C103.682 140.802 105.563 142.524 104.598 145.295C103.634 148.059 99.6449 157.299 103.553 161.341L105.92 150.592C105.928 150.584 108.798 141.188 107.89 135.776Z" fill="#F1EADC"/>
<path d="M121.858 135.744C121.858 135.744 121.315 136.383 120.456 137.449C120.213 137.752 119.937 138.088 119.645 138.449C119.256 138.933 118.826 139.466 118.381 140.04C118.121 140.368 117.854 140.704 117.586 141.056C114.197 145.402 109.86 151.346 108.782 154.569C108.709 154.798 108.636 155.019 108.571 155.233C107.031 160.283 107.914 162.825 106.974 162.932C105.985 163.046 104.469 161.448 104.631 159.447C104.744 158.061 104.347 156.495 104.355 154.454C104.355 153.904 104.388 153.314 104.469 152.683C104.817 149.911 106.05 146.32 106.479 143.992C106.504 143.844 106.528 143.697 106.552 143.557C106.844 141.565 105.547 139.015 107.095 136.654C107.849 135.498 109.171 134.637 110.598 133.989C110.849 133.874 111.108 133.768 111.368 133.669C111.749 133.522 112.138 133.382 112.519 133.259C113.046 133.095 113.549 132.948 114.027 132.833C114.481 132.718 114.903 132.628 115.275 132.554C116.167 132.374 116.751 132.308 116.751 132.308L121.858 135.744Z" fill="#B96F38"/>
<path d="M105.855 145.763C105.855 145.763 108.36 150.321 112.511 148.19C112.511 148.19 110.922 157.315 109.414 161.103C107.906 164.891 102.726 163.596 102.928 158.455C103.131 153.322 105.855 145.763 105.855 145.763Z" fill="#F1EADC"/>
<path d="M103.253 160.472C103.334 160.406 103.374 160.3 103.35 160.193C102.523 156.635 106.033 146.452 106.066 146.345C106.114 146.206 106.041 146.05 105.904 146.001C105.766 145.951 105.612 146.025 105.563 146.165C105.417 146.591 101.972 156.602 102.831 160.316C102.863 160.464 103.009 160.546 103.147 160.513C103.196 160.505 103.228 160.488 103.253 160.472Z" fill="#C2AC96"/>
<path d="M82.9118 90.6651C88.3841 97.9213 100.974 105.579 114.562 110.244C119.28 111.868 123.334 113.098 126.796 114.041C129.09 114.664 131.125 115.156 132.917 115.549C133.257 115.623 133.59 115.697 133.914 115.762C141.753 117.378 144.672 116.918 144.672 116.918C144.672 116.918 149.593 115.508 147.777 107.44C147.777 107.44 138.624 104.972 131.595 101.152C130.379 100.488 129.228 99.7907 128.198 99.0446C128.012 98.9134 127.833 98.7822 127.663 98.651C127.396 98.446 127.12 98.2329 126.852 98.0197C120.375 92.8625 114.927 85.9835 100.164 79.416C100.164 79.416 92.4944 74.3326 86.1303 76.2676C85.1818 76.5546 84.2738 76.9891 83.4468 77.5958C78.769 81.064 79.2149 85.7703 82.9118 90.6651Z" fill="#2D4446"/>
<path d="M144.421 104.653C144.364 104.62 144.307 104.604 144.234 104.604C144.048 104.612 143.902 104.767 143.91 104.964C144.105 109.925 140.529 116.238 140.497 116.304C140.4 116.468 140.456 116.681 140.618 116.771C140.781 116.869 140.991 116.812 141.081 116.648C141.235 116.386 144.786 110.105 144.591 104.94C144.583 104.808 144.518 104.71 144.421 104.653Z" fill="#131E07"/>
<path d="M126.796 114.041C129.09 114.664 131.125 115.156 132.917 115.549C138.681 114.032 146.61 110.769 146.61 110.769L146.366 108.055L126.796 114.041Z" fill="#131E07"/>
<path d="M82.9118 90.6651C87.8409 84.4257 87.0869 79.0307 86.1384 76.2594C85.1899 76.5464 84.2819 76.9809 83.4631 77.5876C78.769 81.064 79.2149 85.7703 82.9118 90.6651Z" fill="#131E07"/>
<path d="M86.5114 76.161C86.5114 76.161 83.4874 74.7344 82.8145 76.2922C82.1416 77.85 84.0792 81.3592 84.8413 82.548C85.6034 83.7287 85.9034 80.4655 85.4331 79.0635C85.1575 78.2354 85.0683 76.8825 85.0683 76.8825L86.5114 76.161Z" fill="#B96F38"/>
<path d="M83.1469 79.621C83.1469 79.621 80.3337 78.8093 79.5311 80.6623C78.7285 82.5152 81.031 86.6804 81.939 88.0824C82.847 89.4844 83.3172 85.5653 82.6443 83.9501C81.9714 82.3349 82.4578 81.5232 82.4578 81.5232L83.1469 79.621Z" fill="#B96F38"/>
<path d="M81.4768 81.6297C81.4768 81.6297 78.9879 80.9164 78.2826 82.548C77.5773 84.1796 79.6041 87.861 80.4067 89.099C81.2093 90.3371 81.6227 86.8771 81.0309 85.4505C80.4391 84.0238 80.8607 83.3023 80.8607 83.3023L81.4768 81.6297Z" fill="#B96F38"/>
<path d="M84.7035 76.7432C84.7035 76.7432 81.8903 75.9315 81.0877 77.7845C80.2851 79.6374 82.5875 83.8025 83.4955 85.2046C84.4035 86.6066 84.8737 82.6875 84.2009 81.0723C83.528 79.4571 84.0144 78.6453 84.0144 78.6453L84.7035 76.7432Z" fill="#B96F38"/>
<path d="M146.918 109.785C142.151 108.67 132.414 104.243 120.878 97.9623C112.252 93.2642 102.288 87.2461 100.82 85.1389C100.026 83.9993 99.8233 83.0728 100.212 82.3677C100.796 81.3182 102.499 81.1952 103.269 81.1952C103.471 81.1952 103.626 81.3674 103.617 81.5642C103.609 81.7445 103.455 81.8921 103.277 81.8921C102.515 81.8921 101.185 82.0397 100.812 82.712C100.504 83.2695 100.95 84.1223 101.388 84.7372C102.572 86.4344 110.906 91.7392 121.21 97.3473C130.079 102.177 141.535 107.809 147.08 109.105L146.918 109.785Z" fill="#131E07"/>
<path d="M146.002 106.375C145.499 110.63 144.437 114.5 142.094 117.476C142.094 117.476 144.137 118.935 145.985 117.861C147.396 117.042 150.079 110.384 149.009 106.85C147.809 106.202 146.788 105.981 146.002 106.375Z" fill="#131E07"/>
<path d="M112.56 131.898C114.846 139.843 119.832 138.662 119.832 138.662C119.832 138.662 126.82 136.055 142.961 118.042C152.268 107.654 159.419 95.2812 161.065 86.3196C162.273 79.7358 160.513 74.9968 154.465 74.226C153.071 74.0457 151.709 74.2424 150.412 74.677C144.429 76.6858 139.808 83.8681 139.808 83.8681C129.649 97.3966 134.165 97.8721 126.625 110.966C122.296 118.452 112.56 131.898 112.56 131.898Z" fill="#2D4446"/>
<path d="M130.793 100.848C129.601 105.382 127.55 109.605 124.728 113.336C124.518 113.623 124.988 113.893 125.199 113.614C128.044 109.851 130.112 105.571 131.311 100.996C131.409 100.643 130.882 100.496 130.793 100.848Z" fill="#131E07"/>
<path d="M114.878 127.807L114.886 127.823C114.951 127.922 115.592 128.914 116.637 130.209C116.775 130.39 116.921 130.57 117.075 130.75C118.697 132.685 121.056 135.079 123.634 136.268C123.747 136.317 123.861 136.309 123.958 136.244C124.007 136.211 124.056 136.162 124.08 136.096C124.161 135.924 124.088 135.719 123.918 135.637C121.445 134.489 119.118 132.111 117.537 130.209C117.383 130.021 117.229 129.84 117.091 129.66V129.652C116.086 128.389 115.478 127.454 115.462 127.43C115.365 127.266 115.154 127.225 114.992 127.331C114.838 127.454 114.797 127.659 114.878 127.807Z" fill="#131E07"/>
<path d="M150.404 74.6688C151.433 77.2187 155.227 85.5736 161.065 86.3115C162.273 79.7276 160.513 74.9886 154.465 74.2179C153.063 74.0375 151.701 74.2343 150.404 74.6688Z" fill="#131E07"/>
<path d="M116.646 130.217C116.783 130.398 116.929 130.578 117.083 130.759C117.229 130.586 117.383 130.406 117.537 130.226C121.21 125.88 126.172 118.862 131.53 110.4C136.816 102.054 142.629 91.9032 142.905 89.3451C143.051 87.9677 142.783 87.0412 142.102 86.6231C141.089 85.9835 139.54 86.7132 138.867 87.0986C138.689 87.197 138.632 87.4184 138.746 87.5905C138.843 87.7463 139.046 87.7955 139.2 87.7053C139.873 87.3282 141.097 86.8034 141.745 87.2052C142.288 87.5413 142.305 88.5088 142.224 89.2632C142.005 91.3293 137.262 100.061 130.955 110.023C126.69 116.755 121.275 124.699 117.1 129.668V129.676C116.937 129.865 116.783 130.037 116.646 130.217Z" fill="#131E07"/>
<path d="M113.614 130.094C116.094 133.563 118.875 136.424 122.361 137.875C122.361 137.875 121.275 140.155 119.143 140.122C117.513 140.097 111.976 135.596 111.214 131.98C111.943 130.832 112.738 130.144 113.614 130.094Z" fill="#131E07"/>
<path d="M139.873 47.1774L141.672 50.3258L143.464 53.4907C144.656 55.606 145.831 57.7214 146.999 59.8367C148.158 61.9521 149.309 64.0756 150.42 66.191C150.971 67.2487 151.523 68.3064 152.041 69.3476L152.431 70.1265L152.625 70.5119L152.812 70.8973L152.998 71.2826L153.168 71.6598L153.339 72.0369L153.493 72.3895C153.606 72.6354 153.687 72.8404 153.776 73.0536L153.809 73.1274L153.833 73.193L153.882 73.316L153.93 73.4308C153.906 73.357 153.89 73.2832 153.866 73.2094C153.841 73.1274 153.825 73.0208 153.809 72.9306L153.784 72.7666C153.776 72.7092 153.768 72.6518 153.768 72.5945C153.768 72.5371 153.76 72.4633 153.752 72.3977C153.752 72.3321 153.744 72.2583 153.752 72.1927C153.752 72.0451 153.76 71.8811 153.776 71.7254C153.793 71.5532 153.825 71.381 153.866 71.2088C153.906 71.0284 153.963 70.8481 154.02 70.6677C154.084 70.4873 154.157 70.3151 154.238 70.1511C154.279 70.0691 154.328 69.9872 154.368 69.9052C154.409 69.8314 154.457 69.7576 154.506 69.6838C154.555 69.61 154.611 69.5362 154.652 69.4706C154.701 69.405 154.749 69.3476 154.798 69.282C155.203 68.7983 155.568 68.5523 155.819 68.3965C156.079 68.2408 156.241 68.1834 156.346 68.1424C156.403 68.126 156.435 68.1096 156.468 68.1096C156.484 68.1014 156.517 68.1014 156.517 68.1014C156.541 68.1014 156.517 68.1096 156.492 68.1178C156.427 68.1342 156.29 68.1588 156.119 68.167C155.779 68.1998 155.333 68.208 154.855 68.1998C153.89 68.1752 152.812 68.085 151.717 67.962C150.615 67.8308 149.488 67.675 148.353 67.4864C146.083 67.1175 143.772 66.6665 141.47 66.1664C140.318 65.9204 139.159 65.6581 138.008 65.3875L136.281 64.9775L135.422 64.7644L134.587 64.5512L134.514 64.5348C131.83 63.8543 129.106 65.5105 128.442 68.2244C127.785 70.8808 129.341 73.5701 131.928 74.3245L132.852 74.595L133.752 74.8492L135.551 75.3411C136.751 75.6691 137.951 75.9807 139.159 76.284C141.575 76.8908 144.007 77.4565 146.504 77.9566C147.753 78.2026 149.017 78.4322 150.315 78.629C151.62 78.8257 152.949 78.9897 154.409 79.0799C155.138 79.1209 155.909 79.1455 156.776 79.1045C157.214 79.0799 157.684 79.0471 158.211 78.9651C158.478 78.9241 158.762 78.8749 159.07 78.8011C159.224 78.7683 159.395 78.7191 159.557 78.6699C159.735 78.6126 159.913 78.5634 160.108 78.4896C160.497 78.342 160.935 78.1616 161.454 77.85C161.592 77.7681 161.713 77.6861 161.851 77.5877C161.924 77.5385 161.997 77.4811 162.062 77.4319C162.135 77.3745 162.2 77.3335 162.273 77.2679C162.346 77.2023 162.419 77.1449 162.491 77.0793C162.564 77.0137 162.637 76.9482 162.71 76.8744C162.783 76.8006 162.864 76.7186 162.937 76.6448L163.051 76.5218L163.164 76.3906C163.237 76.3004 163.31 76.2102 163.383 76.1118C163.456 76.0217 163.529 75.9069 163.594 75.8085C163.667 75.7019 163.732 75.5953 163.797 75.4887C163.862 75.3739 163.926 75.2591 163.983 75.1444C164.105 74.9148 164.202 74.6606 164.299 74.4146C164.389 74.1605 164.462 73.9145 164.518 73.6603C164.575 73.4144 164.616 73.1602 164.64 72.9142C164.664 72.6846 164.68 72.4387 164.68 72.2173C164.68 72.1107 164.68 72.0041 164.672 71.8975C164.664 71.7909 164.664 71.6762 164.648 71.586C164.64 71.4876 164.632 71.3892 164.616 71.299C164.599 71.2006 164.591 71.1022 164.575 71.0202C164.543 70.8563 164.51 70.6759 164.47 70.5201C164.429 70.3725 164.389 70.2249 164.348 70.0773L164.243 69.7576L164.137 69.446L164.089 69.2902L164.04 69.1508C163.91 68.7983 163.772 68.4293 163.643 68.1178L163.448 67.6258L163.254 67.1585L163.059 66.6911L162.864 66.2402L162.67 65.7892L162.467 65.3465L162.07 64.4692C161.535 63.3049 160.992 62.1735 160.449 61.0502C159.354 58.8036 158.243 56.5899 157.125 54.3844C156.006 52.187 154.871 49.9979 153.728 47.8169L152.009 44.5537L150.266 41.2823C148.701 38.3552 145.085 37.2565 142.191 38.839C139.297 40.4214 138.211 44.0782 139.775 47.0052C139.8 47.0544 139.824 47.0954 139.856 47.1446L139.873 47.1774Z" fill="#B96F38"/>
<path d="M130.322 64.543C130.322 64.543 124.388 67.0355 123.934 69.118C123.48 71.2006 123.593 72.1025 123.593 72.1025L130.322 64.543Z" fill="#6B2D18"/>
<path d="M134.911 64.7972C133.079 63.6411 130.72 63.8215 129.009 65.1415C127.371 66.4042 125.028 68.3883 123.504 70.4299C121.121 73.6275 120.399 78.3256 121.477 78.8093C122.556 79.2931 122.612 74.6606 124.218 73.5045C124.218 73.5045 121.461 79.3505 122.402 80.3835C123.423 81.4986 124.153 76.2184 125.766 74.7344C125.766 74.7344 123.415 80.3999 124.226 80.7197C125.474 81.2116 125.693 77.7763 127.396 76.4316C127.396 76.4316 125.482 80.1786 126.358 80.8181C127.225 81.4576 129.05 75.7757 131.368 74.7672C133.695 73.7587 135.778 73.2176 136.638 71.0612C137.27 69.4788 137.457 66.4124 134.911 64.7972Z" fill="#B96F38"/>
<path d="M157.708 69.3394C157.781 69.3312 157.854 69.2902 157.895 69.2164C157.952 69.1016 157.911 68.9622 157.797 68.8967C155.017 67.429 151.62 67.4782 151.474 67.4782C151.344 67.4782 151.239 67.5848 151.247 67.716C151.247 67.8472 151.352 67.9538 151.482 67.9456C151.514 67.9456 154.903 67.8964 157.579 69.3066C157.619 69.3394 157.66 69.3476 157.708 69.3394Z" fill="#6B2D18"/>
<path d="M152.341 67.8718C152.406 67.8636 152.463 67.8309 152.504 67.7735C153.249 66.7404 154.814 66.3796 154.83 66.3796C154.96 66.355 155.033 66.2238 155.009 66.1008C154.984 65.9697 154.855 65.8959 154.733 65.9205C154.66 65.9369 152.982 66.3222 152.131 67.4947C152.058 67.6013 152.074 67.7489 152.179 67.8226C152.228 67.8554 152.285 67.8718 152.341 67.8718Z" fill="#6B2D18"/>
<path d="M118.567 20.2517C118.567 20.2517 117.4 20.4403 117.278 21.9653C117.156 23.4985 118.081 25.9746 119.572 25.5565C121.064 25.1465 118.567 20.2517 118.567 20.2517Z" fill="#6B2D18"/>
<path d="M119.289 28.1719C118.154 28.3031 117.124 27.475 116.994 26.3272C116.865 25.1793 117.683 24.138 118.818 24.0068C119.953 23.8756 120.983 24.7038 121.113 25.8516C121.242 26.9995 120.424 28.0408 119.289 28.1719ZM118.883 24.6136C118.081 24.7037 117.505 25.4417 117.594 26.2534C117.683 27.0651 118.413 27.6472 119.216 27.557C120.018 27.4668 120.594 26.7289 120.505 25.9172C120.415 25.1055 119.686 24.5234 118.883 24.6136Z" fill="#ECB46B"/>
<path d="M136.216 35.0755C136.216 35.0755 134.433 39.1259 130.087 40.0688C124.566 41.274 123.764 38.8881 123.764 38.8881C123.95 38.1092 124.039 37.3385 124.047 36.5186C124.047 36.207 124.047 35.8954 124.023 35.5675C123.974 34.6738 123.845 33.6981 123.658 32.583C123.618 32.3207 123.561 32.0501 123.512 31.7713L123.504 31.7385C127.298 30.5415 130.339 28.5901 132.309 25.5564L132.86 25.1629L133.233 24.9005L133.322 25.1219L133.298 25.8516C133.184 29.2952 134.133 32.0665 136.216 35.0755Z" fill="#B96F38"/>
<path d="M129.844 28.7458C129.155 30.6644 127.493 34.0916 124.031 35.5757C123.983 34.682 123.853 33.7063 123.666 32.5912C123.626 32.3288 123.569 32.0583 123.52 31.7795C123.593 31.7795 123.674 31.7877 123.756 31.7877C125.863 31.7713 128.069 30.5086 129.844 28.7458Z" fill="#131E07"/>
<path d="M137.546 18.948C137.821 21.0551 136.403 23.8756 133.687 24.3184H133.671L133.614 24.3266C133.589 24.4496 133.549 24.5807 133.517 24.7119C133.5 24.7693 133.484 24.8267 133.468 24.8759C133.468 24.8841 133.468 24.8841 133.46 24.8923C132.236 28.6967 127.469 31.4843 124.753 31.9271C123.78 32.0829 123.099 31.9517 122.88 31.9353C119.905 31.6893 118.843 27.8112 118.899 24.7283C118.907 24.2774 118.94 23.851 118.997 23.4493C118.997 23.4247 119.005 23.3919 119.005 23.3673C119.005 23.3673 117.481 19.276 117.01 17.464C116.102 13.9548 117.651 10.052 125.304 8.29742C132.957 6.54283 135.454 11.1507 136.338 13.6596C136.484 14.0778 136.735 16.6523 136.37 17.1196C137.149 17.3902 137.457 18.2429 137.546 18.948Z" fill="#B96F38"/>
<path d="M133.217 22.7032C133.33 22.6704 133.411 22.572 133.419 22.449C133.533 20.4157 135.762 19.2432 135.778 19.235C135.916 19.1612 135.973 18.989 135.9 18.8496C135.827 18.7103 135.657 18.6529 135.519 18.7267C135.414 18.7759 132.981 20.0549 132.852 22.4244C132.844 22.5802 132.965 22.7196 133.119 22.7278C133.152 22.7196 133.184 22.7196 133.217 22.7032Z" fill="#6B2D18"/>
<path d="M135.511 21.2683C135.543 21.2601 135.576 21.2437 135.608 21.2191C135.73 21.1207 135.746 20.9404 135.649 20.8174C135.624 20.7846 134.976 19.9975 133.841 20.1943C133.687 20.2189 133.581 20.3664 133.614 20.5222C133.638 20.678 133.784 20.7846 133.938 20.7518C134.749 20.6124 135.203 21.1617 135.211 21.1699C135.284 21.2683 135.406 21.3011 135.511 21.2683Z" fill="#6B2D18"/>
<g opacity="0.5">
<g opacity="0.5">
<g opacity="0.5">
<g opacity="0.5">
<g opacity="0.5">
<g opacity="0.5">
<g opacity="0.5">
<g opacity="0.5">
<g opacity="0.5">
<g opacity="0.5">
<path opacity="0.5" d="M120.407 23.9084C120.44 24.2199 119.799 24.5643 118.899 24.7283C118.908 24.2773 118.94 23.851 118.997 23.4492C119.783 23.4492 120.375 23.6214 120.407 23.9084Z" fill="#6B2D18"/>
</g>
</g>
</g>
</g>
</g>
</g>
</g>
</g>
</g>
</g>
<g opacity="0.5">
<g opacity="0.5">
<g opacity="0.5">
<g opacity="0.5">
<g opacity="0.5">
<g opacity="0.5">
<g opacity="0.5">
<g opacity="0.5">
<g opacity="0.5">
<g opacity="0.5">
<path opacity="0.5" d="M125.223 23.3017C125.263 23.6625 126.18 23.8511 127.266 23.7199C128.352 23.5969 129.204 23.2033 129.163 22.8426C129.123 22.4818 128.206 22.2932 127.12 22.4244C126.026 22.5556 125.182 22.9492 125.223 23.3017Z" fill="#6B2D18"/>
</g>
</g>
</g>
</g>
</g>
</g>
</g>
</g>
</g>
</g>
<path d="M133.687 24.3184H133.671L133.614 24.3266C133.59 24.4496 133.549 24.5808 133.517 24.712C133.5 24.7694 133.484 24.8268 133.468 24.876C133.468 24.8842 133.468 24.8842 133.46 24.8924C133.144 24.8842 132.738 24.8186 132.349 24.6136C132.122 24.4906 131.903 24.3184 131.717 24.0807C131.619 23.9577 131.636 23.7773 131.765 23.6789C131.887 23.5805 132.065 23.5969 132.163 23.7199C132.373 23.9905 132.649 24.138 132.909 24.22C133.087 24.2774 133.265 24.302 133.419 24.3102C133.517 24.3184 133.614 24.3184 133.687 24.3184Z" fill="#6B2D18"/>
<path d="M132.99 24.343C133.192 24.3758 133.419 24.3758 133.598 24.3594C133.598 24.3676 133.598 24.384 133.598 24.3922C133.687 25.2039 134.416 25.7861 135.219 25.6959C136.022 25.6057 136.597 24.8678 136.508 24.0561C136.427 23.3263 135.827 22.777 135.114 22.7442C134.911 22.5556 134.879 22.3506 135.041 22.1293C136.078 22.1293 136.978 22.9164 137.108 23.9823C137.238 25.1301 136.419 26.1714 135.284 26.3026C134.149 26.4338 133.119 25.6057 132.99 24.4578C132.998 24.4168 132.99 24.384 132.99 24.343Z" fill="#ECB46B"/>
<path d="M125.207 24.8431C125.207 24.8431 125.361 27.3275 123.326 27.6964C121.291 28.0654 120.837 26.0566 120.837 26.0566L125.207 24.8431Z" fill="white"/>
<path d="M123.845 28.5737C124.234 28.4425 124.412 28.1391 124.428 28.1145C124.477 28.0243 124.453 27.9096 124.364 27.8604C124.274 27.8112 124.161 27.8358 124.112 27.926C124.104 27.9424 123.861 28.3277 123.326 28.2375C123.22 28.2211 123.131 28.2867 123.115 28.3933C123.099 28.4917 123.164 28.5901 123.269 28.6065C123.488 28.6557 123.683 28.6311 123.845 28.5737Z" fill="#6B2D18"/>
<path d="M123.974 21.4897C124.096 21.4733 124.201 21.3832 124.226 21.252C124.274 20.965 124.485 20.3501 124.793 20.2599C125.247 20.1287 125.799 20.4813 125.807 20.4895C125.936 20.5796 126.115 20.5386 126.204 20.4075C126.293 20.2763 126.253 20.0959 126.123 20.0057C126.09 19.9811 125.345 19.4974 124.639 19.7023C123.901 19.9155 123.683 21.0224 123.658 21.1536C123.634 21.3094 123.731 21.4651 123.893 21.4897C123.918 21.4897 123.942 21.4897 123.974 21.4897Z" fill="#131E07"/>
<path d="M120.975 22.0308C120.999 22.0308 121.032 22.0226 121.056 22.0062C121.202 21.9407 121.267 21.7685 121.21 21.6209C121.169 21.5225 120.796 20.6944 120.156 20.6616C119.564 20.6288 119.086 21.1207 119.037 21.1781C118.924 21.2929 118.932 21.4815 119.045 21.5881C119.159 21.6947 119.345 21.6947 119.451 21.5799C119.548 21.4815 119.848 21.2273 120.132 21.2437C120.342 21.2519 120.594 21.6455 120.683 21.8505C120.724 21.9816 120.845 22.0472 120.975 22.0308Z" fill="#131E07"/>
<path d="M133.573 9.53551C131.676 8.01868 129.179 6.93641 126.415 7.47755C122.54 8.23186 119.11 10.1012 117.4 12.5118C116.573 13.6678 116.143 14.9469 116.248 16.2915C116.581 20.4239 117.343 19.5056 117.343 19.5056C117.343 19.5056 117.31 19.4154 117.31 18.5217C117.31 17.9887 117.335 17.1606 117.383 15.8898C117.505 12.8643 126.763 11.2655 126.415 13.2579C126.415 13.2579 126.415 13.5038 126.496 13.8646C126.577 14.25 126.739 14.7829 127.071 15.2912C127.144 15.2912 127.217 15.2994 127.29 15.2994C128.247 15.3486 129.05 15.5126 129.722 15.7504C129.812 15.7996 131.352 16.6441 131.352 18.1691C131.352 19.7351 131.052 21.8259 132.041 21.3093C133.03 20.7846 133.209 19.4892 133.209 19.4892C133.671 18.7266 134.254 17.9477 135.227 17.4722C135.227 14.7255 134.96 11.9542 133.573 9.53551Z" fill="#131E07"/>
<path d="M134.352 11.2162C131.441 10.6259 127.234 13.3152 126.504 13.8727C126.585 14.2581 126.747 14.791 127.08 15.2994C127.152 15.2994 127.225 15.3076 127.298 15.3076C128.255 15.3568 129.058 15.5207 129.731 15.7585C129.82 15.8077 131.36 16.6522 131.36 18.1772C131.36 19.7433 131.384 28.6146 132.471 28.8524C135.316 29.4837 133.63 19.4235 133.63 19.4235C134.092 18.661 134.262 17.9477 135.235 17.4721C136.005 15.16 135.357 13.1266 134.352 11.2162Z" fill="#131E07"/>
<path d="M133.703 11.1343C133.703 11.1343 135.714 13.3644 135.243 17.4804C135.243 17.4804 136.549 16.9556 137.213 17.1032C137.886 17.2508 138.235 14.7993 137.311 12.7085C136.378 10.6178 132.982 8.37122 132.982 8.37122C132.982 8.37122 133.03 10.503 133.703 11.1343Z" fill="#131E07"/>
<path d="M122.353 24.6546C122.312 24.6628 122.264 24.6546 122.223 24.6382L121.08 24.1544C120.999 24.1216 120.95 24.0479 120.934 23.9659C120.926 23.8839 120.959 23.7937 121.023 23.7445C121.794 23.1296 122.199 22.2933 122.296 21.1126C122.304 20.9814 122.418 20.883 122.556 20.8912C122.685 20.8994 122.783 21.0224 122.775 21.1536C122.677 22.3261 122.312 23.1952 121.623 23.8675L122.418 24.2036C122.539 24.2528 122.596 24.3922 122.548 24.5152C122.507 24.589 122.434 24.6382 122.353 24.6546Z" fill="#6B2D18"/>
<path d="M122.742 21.6947C122.45 20.1369 123.472 18.6364 125.004 18.3413C126.544 18.0461 128.028 19.0792 128.32 20.6288C128.612 22.1866 127.59 23.687 126.058 23.9822C124.518 24.2774 123.034 23.2525 122.742 21.6947ZM123.18 21.6127C123.423 22.9245 124.68 23.7854 125.977 23.5395C127.274 23.2935 128.125 22.0226 127.882 20.7108C127.639 19.3989 126.382 18.538 125.085 18.784C123.796 19.03 122.937 20.3008 123.18 21.6127Z" fill="white"/>
<path d="M116.127 22.9574C115.835 21.3996 116.856 19.8991 118.389 19.604C119.929 19.3088 121.413 20.3419 121.704 21.8915C121.996 23.4493 120.975 24.9497 119.443 25.2449C117.91 25.5401 116.419 24.507 116.127 22.9574ZM116.565 22.8672C116.808 24.179 118.064 25.0481 119.362 24.794C120.659 24.548 121.51 23.2771 121.267 21.9653C121.023 20.6534 119.767 19.7925 118.47 20.0385C117.181 20.2927 116.321 21.5635 116.565 22.8672Z" fill="white"/>
<path d="M133.881 18.9972L134.068 18.6364C133.946 18.5708 130.728 16.9966 127.379 19.0464L127.615 19.4317C130.752 17.505 133.857 18.9808 133.881 18.9972Z" fill="white"/>
<path d="M122.839 21.6372L123.034 21.2355C122.677 21.0551 121.85 20.8911 121.283 21.5716L121.623 21.8586C122.102 21.2929 122.807 21.629 122.839 21.6372Z" fill="white"/>
<path d="M123.756 17.5131C123.148 17.7017 122.726 16.8982 123.22 16.4965C123.48 16.2915 123.845 16.1439 124.347 16.1603C126.528 16.2341 127.606 18.0051 127.606 18.0051C127.606 18.0051 125.499 17.2754 124.388 17.382C124.137 17.4066 123.926 17.4558 123.756 17.5131Z" fill="#131E07"/>
<path d="M120.448 18.1937C121.08 18.1609 121.218 17.259 120.61 17.054C120.294 16.9474 119.905 16.931 119.434 17.1196C117.408 17.9313 117.529 19.4727 117.529 19.4727C117.529 19.4727 118.721 18.5544 119.799 18.2839C120.059 18.2265 120.27 18.2019 120.448 18.1937Z" fill="#131E07"/>
<path d="M40.5358 170.54C51.7294 170.54 60.8036 169.072 60.8036 167.261C60.8036 165.449 51.7294 163.981 40.5358 163.981C29.3422 163.981 20.2679 165.449 20.2679 167.261C20.2679 169.072 29.3422 170.54 40.5358 170.54Z" fill="#C2AC96"/>
<path d="M49.6319 143.688L49.486 144.254L49.3239 144.861L44.7352 162.333L44.5244 163.137L43.5354 166.916H30.7099L29.6802 162.997L29.5749 162.612L28.8533 159.832L28.7398 159.414L28.0912 156.946L27.994 156.594L25.7726 148.124L25.6915 147.812L24.6133 143.688H49.6319Z" fill="#FABD20"/>
<path d="M29.2668 155.438C28.9101 155.962 28.521 156.479 28.0913 156.946L27.994 156.594C28.3588 156.184 28.6912 155.733 28.9912 155.282C29.8262 154.052 30.6613 152.617 30.1991 151.076C29.8019 149.764 28.6588 148.747 27.3779 148.354C26.8509 148.19 26.3077 148.116 25.7645 148.116L25.6835 147.804C26.3888 147.796 27.0941 147.903 27.7751 148.157C29.0236 148.632 30.11 149.682 30.4991 150.985C31.0018 152.617 30.1505 154.142 29.2668 155.438Z" fill="#E5A501"/>
<path d="M43.811 143.688C42.7004 144.664 41.5654 145.607 40.3898 146.501C38.9224 147.616 37.3091 148.96 35.4931 149.42C33.9771 149.805 32.3638 149.395 31.5044 148.001C30.7018 146.689 30.7991 145.14 31.0828 143.68H31.399C31.0585 145.435 30.9693 147.534 32.5259 148.69C34.05 149.829 36.0525 149.059 37.4794 148.165C39.0035 147.214 40.4385 146.107 41.8248 144.967C42.3355 144.549 42.8382 144.123 43.3327 143.688H43.811Z" fill="#E5A501"/>
<path d="M49.4861 144.254L49.324 144.861C48.6835 145.558 48.116 146.329 47.6296 147.148C45.8622 150.141 45.1001 153.732 44.7515 157.168C44.5813 158.881 44.5488 160.628 44.7353 162.333L44.5245 163.145C44.4597 162.694 44.4029 162.243 44.3705 161.784C44.0867 158.168 44.5975 154.372 45.6676 150.912C46.4297 148.436 47.6539 146.066 49.4861 144.254Z" fill="#E5A501"/>
<path d="M43.1868 148.755C40.171 154.314 39.0927 160.726 39.9683 166.916H39.644C39.6116 166.695 39.5792 166.482 39.5548 166.26C38.5739 158.151 41.0709 149.895 46.2676 143.68H46.6729C45.3352 145.246 44.1678 146.943 43.1868 148.755Z" fill="#E5A501"/>
<path d="M37.4875 157.397C37.3578 160.578 36.6281 163.743 36.3849 166.916H36.0768C36.1336 166.227 36.2065 165.547 36.2957 164.858C36.5714 162.694 36.9605 160.537 37.1308 158.365C37.2118 157.25 37.301 156.077 37.1227 154.962C36.9605 153.937 36.3444 152.748 35.1769 152.74C34.0257 152.732 33.2069 153.667 32.5421 154.486C31.8449 155.347 31.1882 156.233 30.5559 157.151C29.9559 158.02 29.3884 158.914 28.8534 159.832L28.7399 159.414C29.4857 158.168 30.2883 156.954 31.1477 155.782C32.1449 154.429 33.6609 151.928 35.6796 152.51C37.6577 153.076 37.5523 155.782 37.4875 157.397Z" fill="#E5A501"/>
<path d="M33.288 166.416C33.2637 166.588 33.2313 166.752 33.1988 166.924H32.8746C33.1097 165.793 33.1988 164.629 33.1178 163.464C33.0853 162.923 33.0286 162.317 32.7124 161.849C32.2017 161.103 31.3261 161.464 30.7343 161.907C30.3289 162.21 29.9722 162.579 29.6722 162.989L29.575 162.604C29.8992 162.194 30.2803 161.833 30.71 161.538C31.7071 160.849 32.8178 160.98 33.2232 162.218C33.6609 163.506 33.4988 165.104 33.288 166.416Z" fill="#E5A501"/>
<path d="M49.6319 143.688C49.6319 144.131 44.0299 144.492 37.1226 144.492C30.2153 144.492 24.6133 144.131 24.6133 143.688C24.6133 143.246 30.2153 142.885 37.1226 142.885C44.0299 142.885 49.6319 143.246 49.6319 143.688Z" fill="#131E07"/>
<path d="M37.1389 124.06C37.1389 124.06 29.8992 120.231 29.6155 113.549C29.5749 112.581 29.6317 111.597 29.7695 110.605L32.988 112.45C32.9475 112.393 31.3991 110.22 30.1587 108.58C31.8125 101.693 36.5795 95.3303 36.5795 95.3303C36.5795 95.3303 39.4089 99.0363 41.5087 103.923L39.4657 108.728L42.2221 105.735C44.5407 112.089 45.0839 119.788 37.1389 124.06Z" fill="#7F784B"/>
<path d="M36.6282 105.186C37.0498 115.352 36.9687 125.552 36.9444 135.727C36.9363 138.384 36.9282 141.032 36.9201 143.688C36.9201 143.901 37.2524 143.901 37.2524 143.688C37.2849 133.407 37.3416 123.125 37.1633 112.852C37.1227 110.302 37.0579 107.744 36.9525 105.194C36.9525 104.972 36.6201 104.964 36.6282 105.186Z" fill="#131E07"/>
<path d="M32.9313 107.596C34.2365 109.039 35.5417 110.482 36.847 111.917C36.9929 112.081 37.228 111.835 37.0821 111.679C35.7769 110.236 34.4716 108.793 33.1664 107.358C33.0204 107.194 32.7853 107.432 32.9313 107.596Z" fill="#131E07"/>
<path d="M41.3546 110.638C39.8872 111.909 38.4198 113.18 36.9524 114.45C36.7903 114.59 37.0254 114.828 37.1875 114.688C38.6549 113.417 40.1223 112.147 41.5897 110.876C41.7519 110.736 41.5168 110.499 41.3546 110.638Z" fill="#131E07"/>
<path d="M32.5664 115.5C34.0419 116.763 35.5255 118.017 37.001 119.28C37.1632 119.419 37.3983 119.181 37.2362 119.042C35.7607 117.779 34.2771 116.525 32.8016 115.262C32.6394 115.123 32.4043 115.361 32.5664 115.5Z" fill="#131E07"/>
<path d="M41.46 134.719C41.46 134.719 49.0807 135.055 52.4127 129.799C52.8992 129.037 53.3045 128.209 53.6531 127.348L50.1995 127.307C50.2562 127.282 52.5181 126.257 54.2774 125.527C56.1339 119.181 55.234 111.778 55.234 111.778C55.234 111.778 51.2291 113.426 47.2728 116.377L46.6891 121.231L45.846 117.501C41.0303 121.534 37.0254 127.495 41.46 134.719Z" fill="#7F784B"/>
<path d="M50.3455 119.55C46.7702 125.216 43.1058 130.816 39.8224 136.653C38.8414 138.4 37.8929 140.163 36.9768 141.942C36.8795 142.13 37.1632 142.303 37.2686 142.114C40.3331 136.145 43.8354 130.447 47.4269 124.789C48.497 123.1 49.5753 121.411 50.6373 119.722C50.7508 119.534 50.459 119.362 50.3455 119.55Z" fill="#131E07"/>
<path d="M52.4128 123.092C50.6454 123.65 48.8781 124.207 47.1188 124.765C46.9161 124.83 47.0053 125.158 47.208 125.093C48.9754 124.535 50.7427 123.978 52.502 123.42C52.7047 123.355 52.6155 123.027 52.4128 123.092Z" fill="#131E07"/>
<path d="M43.9733 121.961C44.557 123.65 45.1407 125.339 45.7244 127.028C45.7974 127.233 46.1136 127.143 46.0487 126.938C45.465 125.249 44.8813 123.56 44.2976 121.871C44.2246 121.666 43.9003 121.756 43.9733 121.961Z" fill="#131E07"/>
<path d="M49.0402 129.652C47.2242 129.971 45.4082 130.299 43.5922 130.619C43.3814 130.66 43.4706 130.98 43.6814 130.947C45.4974 130.627 47.3134 130.299 49.1294 129.979C49.3401 129.938 49.251 129.619 49.0402 129.652Z" fill="#131E07"/>
<path d="M33.4744 136.9C33.4744 136.9 26.1618 139.105 21.6704 134.825C21.0219 134.202 20.4219 133.505 19.8788 132.751L23.2189 131.865C23.1621 131.857 20.7219 131.423 18.8329 131.144C15.5009 125.445 14.5929 118.05 14.5929 118.05C14.5929 118.05 18.8735 118.665 23.4216 120.551L25.1565 125.109L25.0754 121.289C30.7099 124.011 36.0363 128.799 33.4744 136.9Z" fill="#7F784B"/>
<path d="M20.9651 124.617C25.197 128.659 29.2587 132.857 33.1501 137.236C34.3824 138.629 35.6147 140.023 36.8389 141.425C36.9848 141.589 37.2199 141.352 37.074 141.188C33.215 136.785 29.3398 132.406 25.197 128.274C23.8836 126.962 22.546 125.667 21.2002 124.388C21.0461 124.224 20.8029 124.462 20.9651 124.617Z" fill="#131E07"/>
<path d="M20.049 128.668C21.8487 128.774 23.6566 128.873 25.4564 128.979C25.6672 128.996 25.6672 128.651 25.4564 128.643C23.6566 128.536 21.8487 128.438 20.049 128.332C19.8382 128.315 19.8382 128.651 20.049 128.668Z" fill="#131E07"/>
<path d="M27.6292 125.142C27.4671 126.962 27.3049 128.782 27.1428 130.594C27.1266 130.808 27.459 130.808 27.4752 130.594C27.6373 128.774 27.7995 126.954 27.9616 125.142C27.9859 124.929 27.6535 124.929 27.6292 125.142Z" fill="#131E07"/>
<path d="M24.9051 134.194C26.6482 134.063 28.3993 133.932 30.1424 133.8C30.3531 133.784 30.3531 133.448 30.1424 133.464C28.3993 133.595 26.6482 133.727 24.9051 133.858C24.6862 133.874 24.6862 134.21 24.9051 134.194Z" fill="#131E07"/>
<path d="M86.8356 24.5152C92.9832 24.5152 97.9667 19.4751 97.9667 13.2579C97.9667 7.04067 92.9832 2.00061 86.8356 2.00061C80.6881 2.00061 75.7045 7.04067 75.7045 13.2579C75.7045 19.4751 80.6881 24.5152 86.8356 24.5152Z" fill="#C2AC96"/>
<path d="M86.8356 23.0476C92.9832 23.0476 97.9667 18.0075 97.9667 11.7903C97.9667 5.57302 92.9832 0.532959 86.8356 0.532959C80.6881 0.532959 75.7045 5.57302 75.7045 11.7903C75.7045 18.0075 80.6881 23.0476 86.8356 23.0476Z" fill="#A5410F"/>
<path d="M86.8356 21.211C92.089 21.211 96.3534 16.8901 96.3534 11.5853C96.3534 6.27232 92.0809 1.95142 86.8356 1.95142C81.5822 1.95142 77.3178 6.27232 77.3178 11.5853C77.3097 16.8901 81.5822 21.211 86.8356 21.211Z" fill="white"/>
<path d="M77.3098 11.5771C77.3098 11.8313 77.3179 12.0855 77.3422 12.3396C77.7313 7.38741 81.8416 3.46826 86.8356 3.46826C91.8296 3.46826 95.94 7.37921 96.3291 12.3396C96.3453 12.0855 96.3615 11.8313 96.3615 11.5771C96.3615 6.26414 92.0891 1.94324 86.8356 1.94324C81.5822 1.95144 77.3098 6.27234 77.3098 11.5771Z" fill="#C2AC96"/>
<path d="M86.8356 12.7413C86.9086 12.7413 86.9735 12.7085 87.014 12.6512L91.4567 6.60845C91.5297 6.51006 91.5134 6.36248 91.4081 6.28869C91.3108 6.2149 91.1648 6.2313 91.0919 6.33788L86.7627 12.233L81.8416 10.0439C81.7281 9.99466 81.5903 10.0439 81.5417 10.1586C81.493 10.2734 81.5417 10.4128 81.6552 10.462L86.7465 12.7167C86.7708 12.7331 86.8032 12.7413 86.8356 12.7413Z" fill="#131E07"/>
</g>
<defs>
<clipPath id="clip0">
<rect width="227" height="173" fill="white"/>
</clipPath>
</defs>
</svg>
