<svg width="646" height="385" viewBox="0 0 646 385" fill="none" xmlns="http://www.w3.org/2000/svg">
<path d="M67.075 235.966C67.075 235.966 58.7493 198.991 38.1389 191.061C15.99 182.543 13.5692 203.613 36.0574 220.175C51.487 231.526 67.075 235.966 67.075 235.966Z" fill="#7F784B"/>
<path d="M91.079 269.249C91.079 269.249 111.735 237.484 103.024 217.161C93.6807 195.321 76.9163 208.28 80.7398 235.989C83.3868 254.952 91.079 269.249 91.079 269.249Z" fill="#7F784B"/>
<path d="M102.052 290.681C102.052 290.681 64.541 295.779 49.9259 279.217C34.2022 261.409 53.0933 251.78 76.4412 267.096C92.459 277.586 102.052 290.681 102.052 290.681Z" fill="#7F784B"/>
<path d="M108.454 306.949C108.454 306.949 140.535 286.807 141.169 264.717C141.847 240.951 121.192 245.686 113.047 272.42C107.481 290.749 108.454 306.949 108.454 306.949Z" fill="#7F784B"/>
<path d="M45.5143 210.455C62.5501 227.47 78.2965 245.867 90.898 266.439C103.296 286.694 112.368 308.761 118.884 331.576C120.603 337.558 122.142 343.607 123.544 349.656H120.965C117.187 333.57 112.481 317.688 106.237 302.372C97.5721 281.075 85.8302 261.205 71.5998 243.194C62.98 232.296 53.5911 222.055 43.7496 212.245C42.5958 211.067 44.3605 209.3 45.5143 210.455Z" fill="#49421F"/>
<path d="M420.211 249.039H583.33C584.099 249.039 584.732 248.405 584.732 247.634V1.4047C584.732 0.634379 584.099 0 583.33 0H420.211C419.441 0 418.808 0.634379 418.808 1.4047V247.634C418.808 248.405 419.441 249.039 420.211 249.039ZM581.927 246.207H421.613V2.83205H581.927V246.207Z" fill="#C2AC96"/>
<path d="M421.321 36.0916H583.354C584.123 36.0916 584.757 35.4573 584.757 34.6869C584.757 33.9166 584.123 33.2822 583.354 33.2822H421.321C420.552 33.2822 419.919 33.9166 419.919 34.6869C419.919 35.4573 420.529 36.0916 421.321 36.0916Z" fill="#C2AC96"/>
<path d="M504.035 248.405C504.804 248.405 505.437 247.77 505.437 247V34.6869C505.437 33.9166 504.804 33.2822 504.035 33.2822C503.265 33.2822 502.632 33.9166 502.632 34.6869V247C502.609 247.77 503.243 248.405 504.035 248.405Z" fill="#C2AC96"/>
<path d="M82.3914 166.185H328.269C329.038 166.185 329.672 165.55 329.672 164.78V1.4047C329.672 0.634379 329.038 0 328.269 0H82.414C81.6448 0 81.0113 0.634379 81.0113 1.4047V164.757C80.9887 165.55 81.6222 166.185 82.3914 166.185ZM326.844 163.353H83.7941V2.83205H326.844V163.353Z" fill="#C2AC96"/>
<path d="M83.0475 36.5901H328.269C329.038 36.5901 329.671 35.9557 329.671 35.1854C329.671 34.415 329.038 33.7807 328.269 33.7807H83.0475C82.2782 33.7807 81.6448 34.415 81.6448 35.1854C81.6448 35.9557 82.2556 36.5901 83.0475 36.5901Z" fill="#C2AC96"/>
<path d="M208.407 166.185C209.176 166.185 209.81 165.55 209.81 164.78V35.1627C209.81 34.3924 209.176 33.758 208.407 33.758C207.638 33.758 207.004 34.3924 207.004 35.1627V164.78C206.982 165.55 207.615 166.185 208.407 166.185Z" fill="#C2AC96"/>
<path d="M136.214 222.78C136.983 222.78 137.616 222.146 137.616 221.376V201.257C137.616 200.486 136.983 199.852 136.214 199.852C135.445 199.852 134.811 200.486 134.811 201.257V221.376C134.789 222.146 135.422 222.78 136.214 222.78Z" fill="#C2AC96"/>
<path d="M188.226 246.275C188.996 246.275 189.629 245.641 189.629 244.87V224.751C189.629 223.981 188.996 223.347 188.226 223.347C187.457 223.347 186.824 223.981 186.824 224.751V244.87C186.801 245.641 187.434 246.275 188.226 246.275Z" fill="#C2AC96"/>
<path d="M117.956 224.48H219.289C220.058 224.48 220.692 223.845 220.692 223.075C220.692 222.305 220.058 221.67 219.289 221.67H117.956C117.187 221.67 116.554 222.305 116.554 223.075C116.554 223.845 117.187 224.48 117.956 224.48Z" fill="#C2AC96"/>
<path d="M145.444 246.275H217.954C218.724 246.275 219.357 245.641 219.357 244.87C219.357 244.1 218.724 243.466 217.954 243.466H145.444C144.675 243.466 144.042 244.1 144.042 244.87C144.019 245.641 144.653 246.275 145.444 246.275Z" fill="#C2AC96"/>
<path d="M0.0174561 364.247C0.0174561 375.711 144.63 385 322.997 385C501.387 385 646 375.711 646 364.247C646 352.783 501.388 343.493 323.02 343.493C144.63 343.493 0.0174561 352.783 0.0174561 364.247Z" fill="#A5410F"/>
<path d="M57.3918 362.797C57.3918 368.937 172.48 373.898 314.468 373.898C456.456 373.898 571.544 368.937 571.544 362.797C571.544 356.657 456.456 351.695 314.468 351.695C172.48 351.695 57.3918 356.657 57.3918 362.797Z" fill="#731F07"/>
<path d="M115.128 338.328L91.9839 348.795L76.1472 327.702L98.3413 317.665L115.128 338.328Z" fill="#E8A36F"/>
<path d="M14.6324 331.168C24.8132 339.891 46.6907 344.762 52.8896 354.074C59.0886 363.386 69.4278 368.212 75.8304 363.023C78.7941 360.622 84.4728 355.841 90.1514 351.831C90.5586 351.537 90.9659 351.265 91.3957 350.97C93.1378 349.769 94.8572 348.682 96.4861 347.776C96.7802 347.617 97.0743 347.436 97.3684 347.3C97.5042 347.232 97.6626 347.164 97.7983 347.096C101.237 345.533 105.898 346.099 103.771 342.972C98.7259 335.519 91.4409 323.035 88.2057 322.242C86.8709 321.925 84.6764 322.423 82.0294 323.307C81.5543 323.465 81.0566 323.647 80.5588 323.828C79.1561 324.349 77.6629 324.938 76.1471 325.572C75.6946 325.754 75.2195 325.958 74.7444 326.161C69.3599 328.404 63.817 330.738 60.6497 330.806C54.2018 330.919 45.1522 328.993 40.4917 326.343C34.7225 323.057 19.1573 317.008 16.4198 315.898C11.3746 313.836 4.45164 322.423 14.6324 331.168Z" fill="white"/>
<path d="M80.5815 323.828C86.3053 331.531 91.5993 339.529 96.4861 347.776C96.7802 347.617 97.0743 347.436 97.3684 347.3C97.5042 347.232 97.6625 347.164 97.7983 347.096C92.9568 338.894 87.6854 330.965 82.0294 323.307C81.5769 323.465 81.0792 323.646 80.5815 323.828Z" fill="#C2AC96"/>
<path d="M74.7671 326.161C80.1063 334.612 85.242 343.154 90.174 351.831C90.5813 351.536 90.9885 351.265 91.4183 350.97C86.5316 342.383 81.4412 333.91 76.1698 325.572C75.6947 325.776 75.2196 325.957 74.7671 326.161Z" fill="#C2AC96"/>
<path d="M302.907 225.25C302.907 225.25 235.601 224.502 209.629 244.281C183.656 264.083 96.735 317.393 96.735 317.393L112.391 342.519C112.391 342.519 171.304 326.388 201.62 311.91C231.936 297.433 262.32 282.978 262.32 282.978L328.902 343.493L302.907 225.25Z" fill="#2D4446"/>
<path d="M104.97 313.836C111.011 321.811 115.897 330.647 121.825 338.736C122.391 339.506 121.101 340.254 120.535 339.483C114.608 331.395 109.744 322.582 103.68 314.584C103.092 313.814 104.382 313.066 104.97 313.836Z" fill="#527676"/>
<path d="M205.715 292.426C191.665 300.967 177.774 309.849 163.182 317.484C148.815 325.006 133.748 330.919 118.115 335.179C117.187 335.428 116.78 333.978 117.707 333.729C133.476 329.424 148.634 323.443 163.091 315.83C177.435 308.285 191.122 299.54 204.968 291.135C205.783 290.636 206.529 291.928 205.715 292.426Z" fill="#527676"/>
<path d="M376.616 128.009C376.616 128.009 372.793 188.388 342.273 204.904C318.744 217.637 272.003 175.836 262.365 182.021C252.727 188.229 248.768 192.081 254.017 200.872C259.266 209.662 321.527 263.267 354.807 247.408C388.087 231.526 397.204 154.879 376.616 128.009Z" fill="#A5410F"/>
<path d="M336.459 269.86C381.752 344.513 413.041 360.916 427.769 345.918C466.592 306.36 472.61 246.116 471.841 216.595C471.75 212.902 471.886 208.937 472.203 204.768C472.655 198.629 473.47 192.104 474.329 185.533C477.587 160.838 473.605 141.625 471.117 135.485C466.999 125.29 453.696 122.911 446.185 120.373C441.547 118.787 436.638 118.108 431.728 118.38L403.177 119.966C403.177 119.966 382.499 121.506 377.476 124.542C372.453 127.578 368.653 142.667 358.879 155.899C349.106 169.13 345.961 183.018 352.657 199.15C358.494 213.174 357.703 207.986 356.617 230.03C355.282 257.059 330.984 260.82 336.459 269.86Z" fill="#FABD20"/>
<path d="M447.633 103.653L437.022 89.3795L442.724 106.326C429.285 112.648 406.186 119.603 383.698 120.464C381.956 120.532 381.322 120.532 378.833 120.623C378.404 120.645 377.974 120.464 377.974 120.464L374.693 106.983L374.422 120.283C371.616 119.875 366.82 119.535 364.173 118.833C364.173 118.833 366.888 92.0076 364.445 83.3755C361.979 74.7661 356.209 65.9527 358.336 58.1589C360.463 50.3878 372.137 23.7439 403.313 24.6048C403.313 24.6048 420.348 23.7439 428.538 42.1862C441.163 82.0388 454.42 97.649 454.42 97.649C454.511 98.8951 450.008 102.86 447.633 103.653Z" fill="#131E07"/>
<path d="M371.526 83.4435C371.526 83.4435 363.54 82.8771 359.807 72.2059C353.743 54.8511 363.155 36.5674 384.874 30.2916C413.335 22.0673 418.787 30.4502 426.163 40.8948C433.538 51.3394 434.579 68.3997 430.167 78.4817C425.914 88.2467 415.032 93.7748 415.032 93.7748L371.526 83.4435Z" fill="#131E07"/>
<path d="M370.123 79.3653C370.123 79.3653 366.571 80.4302 366.843 85.188C367.114 89.9459 371.028 97.1506 375.485 95.2248C379.942 93.3217 370.123 79.3653 370.123 79.3653Z" fill="#B05935"/>
<path d="M378.313 95.8365C379.037 98.0795 377.793 100.481 375.553 101.206C373.313 101.931 370.915 100.685 370.191 98.442C369.467 96.199 370.711 93.7974 372.951 93.0724C375.214 92.3474 377.612 93.5709 378.313 95.8365Z" fill="#FABD20"/>
<path d="M431.117 117.292C431.117 117.292 427.317 130.478 414.24 135.259C397.634 141.331 394.15 134.352 394.15 134.352C394.376 131.883 394.331 129.481 394.014 126.966C393.901 126.015 393.743 125.041 393.539 124.044C393.019 121.325 392.204 118.402 391.141 115.049C390.892 114.256 390.62 113.441 390.349 112.602L390.326 112.512C401.593 107.21 410.19 99.9147 414.986 89.7646L416.548 88.3373L417.588 87.363L417.95 88.0201L418.176 90.2631C419.262 100.821 423.403 108.932 431.117 117.292Z" fill="#E8A36F"/>
<path d="M408.674 100.594C407.362 106.78 403.652 118.017 393.539 124.044C393.019 121.325 392.204 118.402 391.141 115.049C390.892 114.256 390.621 113.441 390.349 112.602C390.598 112.58 390.824 112.557 391.073 112.512C397.634 111.583 403.946 106.78 408.674 100.594Z" fill="#131E07"/>
<path d="M428.403 67.1989C430.145 73.5426 426.932 82.8091 418.72 85.324L418.674 85.3466L418.493 85.3919C418.471 85.7998 418.403 86.1849 418.335 86.6154C418.312 86.7966 418.29 86.9779 418.244 87.1591C418.244 87.1818 418.244 87.1818 418.222 87.2045C416.027 99.4162 402.453 110.019 394.218 112.534C391.277 113.441 389.105 113.327 388.426 113.35C379.105 113.871 374.173 102.43 373.042 92.9592C372.883 91.5771 372.793 90.2404 372.793 88.9943C372.793 88.9037 372.793 88.813 372.793 88.7451C372.793 88.7451 366.322 76.8278 364.105 71.4809C359.807 61.0816 362.951 48.462 385.915 39.762C408.878 31.0846 418.584 44.1573 422.385 51.4753C423.018 52.6988 424.896 60.4699 423.946 62.0785C426.502 62.5996 427.814 65.0692 428.403 67.1989Z" fill="#E8A36F"/>
<path d="M388.2 82.1521C388.562 82.0614 388.833 81.7443 388.856 81.3591C388.901 80.4982 389.263 78.595 390.168 78.2099C391.458 77.6435 393.245 78.4591 393.268 78.4817C393.697 78.6856 394.218 78.5044 394.421 78.0739C394.625 77.6434 394.444 77.1224 394.014 76.9184C393.924 76.8731 391.503 75.7403 389.467 76.6239C387.34 77.5528 387.136 80.906 387.136 81.2911C387.114 81.7669 387.476 82.1747 387.973 82.1974C388.041 82.1974 388.132 82.1747 388.2 82.1521Z" fill="#131E07"/>
<path d="M379.467 84.9841C379.557 84.9615 379.625 84.9388 379.693 84.8935C380.1 84.6443 380.236 84.1232 379.987 83.7154C379.829 83.4435 378.381 81.1325 376.481 81.2911C374.716 81.4497 373.472 83.081 373.336 83.2622C373.064 83.6474 373.132 84.1911 373.539 84.463C373.924 84.7349 374.467 84.6669 374.738 84.2818C374.987 83.9646 375.779 83.081 376.616 83.013C377.25 82.9677 378.155 84.0099 378.494 84.599C378.72 84.9161 379.105 85.0747 379.467 84.9841Z" fill="#131E07"/>
<path d="M389.037 36.794C406.344 30.8807 423.086 46.944 425.348 53.5824C427.588 60.2207 423.946 62.1012 423.946 62.1012C419.059 63.7098 416.864 67.1309 415.371 70.4387L413.72 74.8341C412.769 77.3716 409.036 76.7599 408.923 74.0637C408.833 71.8208 408.742 70.1442 408.765 70.1215C409.24 66.066 403.086 65.0692 399.218 63.7324C399.24 63.7324 399.24 63.7324 399.218 63.7324C392.498 61.4441 391.503 54.5793 391.503 54.5793C391.752 48.3261 363.721 57.2074 364.626 66.5418C365.621 76.9411 366.028 77.6435 366.028 77.6435C366.028 77.6435 364.037 80.7927 361.255 68.2411C358.495 55.6668 371.752 42.6846 389.037 36.794Z" fill="#131E07"/>
<path d="M389.535 50.5237C383.969 56.8222 376.933 61.9652 368.019 65.5902C372.725 61.3535 376.005 56.8449 377.77 52.0417L389.535 50.5237Z" fill="#131E07"/>
<path d="M427.022 83.3076C427.746 85.5505 426.502 87.9521 424.262 88.6771C422.023 89.4021 419.624 88.156 418.901 85.913C418.177 83.6701 419.421 81.2685 421.661 80.5435C423.9 79.8185 426.299 81.0419 427.022 83.3076Z" fill="#FABD20"/>
<g opacity="0.5">
<g opacity="0.5">
<g opacity="0.5">
<g opacity="0.5">
<g opacity="0.5">
<g opacity="0.5">
<g opacity="0.5">
<g opacity="0.5">
<g opacity="0.5">
<g opacity="0.5">
<g opacity="0.5">
<path opacity="0.5" d="M377.385 89.8099C377.634 90.7615 375.757 92.0756 373.064 92.9592C372.906 91.5771 372.815 90.2404 372.815 88.9943C375.259 88.6544 377.159 88.9263 377.385 89.8099Z" fill="#B05935"/>
</g>
</g>
</g>
</g>
</g>
</g>
</g>
</g>
</g>
</g>
</g>
<path d="M389.173 100.73C390.236 100.3 390.666 99.4389 390.711 99.3709C390.847 99.1217 390.734 98.8045 390.485 98.6686C390.236 98.5327 389.919 98.6459 389.783 98.8952C389.761 98.9405 389.173 100.051 387.657 99.892C387.363 99.8694 387.114 100.073 387.091 100.345C387.069 100.64 387.272 100.889 387.544 100.912C388.2 101.002 388.743 100.912 389.173 100.73Z" fill="#B05935"/>
<path d="M387.476 97.5811C387.498 97.5584 387.521 97.5584 387.566 97.5584C391.028 96.1311 391.571 92.9592 391.571 92.8232C391.639 92.3928 391.345 91.9849 390.915 91.917C390.485 91.849 390.078 92.1435 390.01 92.574C389.987 92.6873 389.58 94.9982 386.955 96.0631C386.933 96.0631 386.91 96.0857 386.888 96.0857C384.263 97.1506 382.589 96.0857 382.589 96.0631C382.227 95.8139 381.729 95.9271 381.48 96.2896C381.232 96.6521 381.345 97.1506 381.707 97.3998C381.775 97.4678 384.06 98.9404 387.476 97.5811Z" fill="#B05935"/>
<path d="M383.743 91.2373C383.607 91.2826 383.471 91.2826 383.336 91.2373L379.58 90.2404C379.331 90.1724 379.128 89.9685 379.06 89.7193C378.992 89.4701 379.06 89.1982 379.241 88.9943C381.367 86.774 382.272 84.0325 382.069 80.3622C382.046 79.9544 382.363 79.5919 382.77 79.5692C383.177 79.5466 383.539 79.8638 383.562 80.2716C383.765 83.8966 382.996 86.7286 381.141 89.0849L383.743 89.7646C384.15 89.8779 384.376 90.2857 384.263 90.6709C384.173 90.988 383.969 91.1693 383.743 91.2373Z" fill="#B05935"/>
<path d="M385.055 68.7168C383.245 69.5551 381.594 67.2668 382.974 65.8395C383.698 65.0918 384.761 64.4801 386.322 64.3215C393.109 63.6191 397.204 68.5809 397.204 68.5809C397.204 68.5809 390.372 67.2442 386.978 68.0598C386.186 68.241 385.553 68.4903 385.055 68.7168Z" fill="#131E07"/>
<path d="M375.1 72.2286C377.046 71.8661 377.091 69.034 375.123 68.6715C374.105 68.4903 372.883 68.6036 371.503 69.3739C365.553 72.727 366.594 77.4169 366.594 77.4169C366.594 77.4169 369.897 74.0864 373.132 72.795C373.901 72.5005 374.535 72.3419 375.1 72.2286Z" fill="#131E07"/>
<g opacity="0.5">
<g opacity="0.5">
<g opacity="0.5">
<g opacity="0.5">
<g opacity="0.5">
<g opacity="0.5">
<g opacity="0.5">
<g opacity="0.5">
<g opacity="0.5">
<g opacity="0.5">
<g opacity="0.5">
<path opacity="0.5" d="M392.046 85.8677C392.317 86.9552 395.236 87.1365 398.562 86.2755C401.887 85.4146 404.331 83.8513 404.059 82.7638C403.788 81.6763 400.869 81.495 397.543 82.356C394.24 83.2169 391.774 84.7802 392.046 85.8677Z" fill="#B05935"/>
</g>
</g>
</g>
</g>
</g>
</g>
</g>
</g>
</g>
</g>
</g>
<path d="M418.72 85.3466L418.674 85.3693L418.493 85.4146C418.471 85.8224 418.403 86.2076 418.335 86.638C418.312 86.8193 418.29 87.0005 418.244 87.1818C418.244 87.2045 418.244 87.2045 418.244 87.2271C417.249 87.3404 415.982 87.3177 414.692 86.842C413.946 86.5701 413.177 86.1396 412.498 85.4826C412.136 85.1427 412.136 84.5763 412.475 84.2365C412.815 83.874 413.38 83.8513 413.72 84.1912C414.489 84.9162 415.394 85.2787 416.254 85.4146C416.842 85.5052 417.385 85.5052 417.882 85.4599C418.199 85.4146 418.493 85.3693 418.72 85.3466Z" fill="#B05935"/>
<path d="M416.57 80.6115C416.91 80.4529 417.113 80.113 417.091 79.7278C416.593 73.452 422.973 68.8754 423.041 68.8301C423.448 68.5582 423.538 67.9918 423.267 67.584C422.995 67.1762 422.43 67.0856 422.023 67.3574C421.728 67.5613 414.715 72.5231 415.303 79.8411C415.349 80.3396 415.778 80.7021 416.253 80.6568C416.367 80.6794 416.48 80.6341 416.57 80.6115Z" fill="#B05935"/>
<path d="M423.086 75.1965C423.176 75.1512 423.29 75.0833 423.357 74.9926C423.697 74.6301 423.674 74.0637 423.312 73.7465C423.222 73.6559 420.869 71.5262 417.43 72.6137C416.955 72.7723 416.706 73.2708 416.864 73.7239C417.023 74.1997 417.52 74.4489 417.973 74.2903C420.416 73.4973 422.068 75.0153 422.09 75.0153C422.385 75.3098 422.769 75.3551 423.086 75.1965Z" fill="#B05935"/>
<path d="M417.362 142.441C420.869 140.402 423.244 138.476 423.471 138.295L422.452 137.048C422.317 137.162 408.765 148.195 397.973 145.227C393.2 143.913 389.625 140.039 387.317 133.673L385.802 134.216C388.29 141.104 392.249 145.318 397.566 146.768C404.466 148.671 412.159 145.454 417.362 142.441Z" fill="#E5A501"/>
<path d="M422.113 163.806L418.833 181.591C418.833 181.591 391.978 178.011 374.105 177.264L378.539 160.86C378.539 160.86 404.444 160.974 422.113 163.806Z" fill="#E5A501"/>
<path d="M422.475 346.824C422.113 347.096 421.593 347.096 421.231 346.801C420.801 346.439 420.733 345.827 421.095 345.397C447.135 313.768 457.316 271.854 461.275 242.242C465.574 210.138 463.673 185.239 463.651 184.989C463.606 184.446 464.013 183.947 464.578 183.902C465.121 183.857 465.619 184.264 465.664 184.831C465.687 185.08 467.61 210.206 463.289 242.514C460.755 261.5 456.592 279.24 450.913 295.213C443.81 315.218 434.307 332.528 422.679 346.665C422.588 346.733 422.543 346.779 422.475 346.824Z" fill="#E5A501"/>
<path d="M410.077 295.915L410.055 295.938C409.602 296.255 408.991 296.164 408.652 295.711C396.344 278.764 381.073 269.838 370.44 265.352C358.924 260.503 350.237 259.642 350.146 259.62C349.603 259.574 349.196 259.076 349.241 258.532C349.287 257.988 349.784 257.581 350.327 257.626C350.689 257.649 359.399 258.532 371.209 263.494C382.091 268.093 397.702 277.201 410.258 294.51C410.598 294.964 410.507 295.575 410.077 295.915Z" fill="#E5A501"/>
<path d="M406.276 263.313C405.982 263.539 405.575 263.584 405.213 263.426C405.009 263.313 383.698 252.936 365.463 253.774C364.92 253.797 364.445 253.366 364.422 252.823C364.399 252.279 364.829 251.803 365.372 251.78C384.127 250.942 405.213 261.206 406.095 261.636C406.593 261.885 406.797 262.474 406.548 262.973C406.503 263.109 406.389 263.222 406.276 263.313Z" fill="#E5A501"/>
<path d="M342.59 259.438L360.169 268.478C361.843 266.326 363.336 263.834 364.648 261.002C372.815 243.511 374.512 213.99 375.802 185.352C377.295 152.092 392.023 120.396 392.023 120.396C387.974 119.15 384.241 120.781 380.666 121.914C378.042 122.752 375.802 124.497 374.354 126.853C368.54 136.188 354.762 153.814 348.563 168.609C341.549 185.352 351.979 197.45 353.676 209.934C354.92 219.087 348.382 241.426 344.807 252.709C343.495 256.81 342.59 259.438 342.59 259.438Z" fill="#A5410F"/>
<path d="M383.675 126.898C384.354 122.209 388.562 119.037 392.996 119.331C393.494 123.024 394.082 130.297 394.399 134.013C388.946 140.492 382.204 148.014 382.204 148.014C380.983 141.988 382.793 132.88 383.675 126.898Z" fill="#731F07"/>
<path d="M342.59 259.438L360.169 268.478C361.843 266.326 363.336 263.834 364.648 261.002C360.576 259.506 351.458 256.04 344.784 252.709C343.495 256.81 342.59 259.438 342.59 259.438Z" fill="#731F07"/>
<path d="M207.185 310.642L193.634 332.143L168.815 323.284L181.801 302.644L207.185 310.642Z" fill="#E8A36F"/>
<path d="M174.539 306.883L206.778 316.353C206.778 316.353 218.61 306.747 235.646 294.83C254.266 281.825 268.79 277.294 274.831 260.347C274.831 260.347 307.523 344.583 361.074 364.294C394.195 376.483 431.231 343.518 431.231 343.518C419.557 305.977 325.011 209.007 291.844 191.381C290.849 190.86 290.057 190.248 289.265 189.863C288.383 189.41 287.455 189.138 286.46 188.979C285.781 188.888 285.08 188.843 284.356 188.866C282.636 188.934 280.804 189.319 278.835 190.044C244.356 202.278 174.539 306.883 174.539 306.883Z" fill="#2D4446"/>
<path d="M312.387 324.349C296.233 306.858 283.202 286.694 273.903 264.785C273.383 263.539 275.193 262.474 275.713 263.72C284.921 285.471 297.84 305.499 313.857 322.854C314.785 323.85 313.314 325.346 312.387 324.349Z" fill="#131E07"/>
<path d="M275.532 263.856C266.845 275.139 256.03 284.519 243.565 291.406C242.366 292.063 241.302 290.251 242.501 289.594C254.628 282.888 265.261 273.78 273.722 262.791C274.514 261.727 276.347 262.769 275.532 263.856Z" fill="#131E07"/>
<path d="M284.378 188.818C287.659 194.029 289.582 197.201 289.627 197.314C289.876 197.722 290.419 197.858 290.826 197.609C291.211 197.36 291.369 196.816 291.098 196.408C291.03 196.318 289.378 193.554 286.46 188.932C285.804 188.841 285.102 188.796 284.378 188.818Z" fill="#527676"/>
<path d="M214.425 310.279C214.832 310.325 215.217 310.053 215.33 309.645C215.466 309.192 215.194 308.716 214.719 308.58L180.353 299.178C179.901 299.042 179.426 299.314 179.29 299.789C179.154 300.242 179.426 300.718 179.901 300.854L214.267 310.257C214.312 310.257 214.357 310.279 214.425 310.279Z" fill="#527676"/>
<path d="M368.517 357.88C381.254 358.945 393.222 355.955 401.842 352.76C414.059 348.251 422.407 342.383 422.498 342.338C422.882 342.066 422.973 341.522 422.701 341.137C422.43 340.752 421.887 340.661 421.502 340.933C421.412 341.001 413.222 346.733 401.209 351.174C390.168 355.252 373.494 359.036 356.933 353.915C343.834 349.86 325.509 329.084 303.993 293.785C287.659 267.028 275.148 241.155 275.012 240.905C274.854 240.566 274.492 240.384 274.13 240.43C273.768 240.475 273.474 240.747 273.383 241.109C273.338 241.291 269.13 259.574 248.135 275.932C225.465 293.604 210.036 307.56 209.9 307.696C209.538 308.014 209.516 308.557 209.832 308.92C210.149 309.282 210.692 309.305 211.054 308.988C211.212 308.852 226.574 294.918 249.198 277.292C266.619 263.72 272.682 249.152 274.446 243.692C277.727 250.308 288.767 272.194 302.5 294.714C324.559 330.874 342.703 351.355 356.413 355.592C360.485 356.815 364.535 357.541 368.517 357.88Z" fill="#527676"/>
<path d="M390.801 278.674C391.774 279.535 392.792 280.395 393.833 281.211C394.059 281.392 394.286 281.551 394.512 281.732C395.077 282.14 395.643 282.57 396.209 282.978C420.733 300.356 462.406 305.816 462.406 305.816C465.89 302.055 469.284 297.864 470.89 292.63C481.546 257.648 476.818 192.489 477.564 171.328C478.537 144.48 477.089 130.342 462.859 123.024C448.628 115.706 429.172 116.205 429.172 116.205C422.973 125.063 412.86 134.738 412.86 134.738C413.041 136.12 413.199 137.57 413.312 139.042C416.615 178.963 398.335 250.829 392.498 272.42C391.458 276.408 390.801 278.674 390.801 278.674Z" fill="#A5410F"/>
<path d="M424.511 243.669C424.511 243.669 437.814 264.717 461.32 267.119L463.877 261.228C463.877 261.228 446.275 260.979 428.335 239.614L424.511 243.669Z" fill="#731F07"/>
<path d="M390.802 278.674C391.774 279.534 392.792 280.395 393.833 281.211C394.059 281.392 394.286 281.551 394.512 281.732C395.077 282.14 395.643 282.57 396.209 282.978C420.733 300.356 462.406 305.816 462.406 305.816C465.89 302.055 468.673 297.592 470.89 292.63C438.334 289.685 401.752 276 392.521 272.398C391.458 276.408 390.802 278.674 390.802 278.674Z" fill="#731F07"/>
<path d="M389.67 278.674C390.711 279.535 391.82 280.395 392.951 281.211C393.2 281.392 393.426 281.551 393.675 281.732C415.326 226.315 419.602 139.745 419.602 139.745L413.358 139.02C417.588 186.417 389.67 278.674 389.67 278.674Z" fill="#731F07"/>
<path d="M427.724 111.537C427.724 111.537 433.855 108.456 441.57 116.522C441.57 116.522 435.031 135.984 413.72 145.137L412.905 134.715C412.905 134.715 424.194 121.076 427.724 111.537Z" fill="#731F07"/>
<path d="M254.786 132.789L257.818 128.462L307.093 131.113L335.825 200.645L332.138 202.911L281.46 194.392L254.786 132.789Z" fill="white"/>
<path d="M257.818 128.462L227.049 124.52L224.153 128.802L254.786 132.789L257.818 128.462Z" fill="white"/>
<path d="M303.541 134.126L333.246 204.089C333.246 204.089 300.871 201.71 282.003 198.017L254.764 132.789L303.541 134.126Z" fill="#A5410F"/>
<path d="M294.401 149.442L296.98 155.989L273.768 156.125L270.216 149.374L294.401 149.442Z" fill="#731F07"/>
<path d="M254.786 132.789L221.416 128.462L252.388 193.667L282.025 198.017L254.786 132.789Z" fill="#731F07"/>
<path d="M230.94 148.513C230.94 148.513 225.217 153.701 227.999 157.485C230.782 161.268 241.868 161.472 245.759 161.268C249.65 161.064 242.275 155.808 238.271 154.992C235.918 154.517 232.977 152.749 232.977 152.749L230.94 148.513Z" fill="#E8A36F"/>
<path d="M236.393 161.313C236.393 161.313 230.511 167 233.814 171.486C237.117 175.995 250.261 176.199 254.899 175.972C259.515 175.746 250.827 169.153 246.031 168.541C241.234 167.929 239.967 165.618 239.967 165.618L236.393 161.313Z" fill="#E8A36F"/>
<path d="M238.859 168.133C238.859 168.133 233.655 173.14 236.574 177.128C239.492 181.093 251.098 181.296 255.193 181.093C259.266 180.889 251.596 175.066 247.343 174.522C243.09 173.978 241.981 171.939 241.981 171.939L238.859 168.133Z" fill="#E8A36F"/>
<path d="M231.732 153.565C231.732 153.565 225.85 159.252 229.153 163.738C232.456 168.246 245.601 168.45 250.239 168.224C254.854 167.997 246.166 161.404 241.347 160.792C236.551 160.181 235.284 157.87 235.284 157.87L231.732 153.565Z" fill="#E8A36F"/>
<path d="M434.783 225.182C426.412 229.464 417.453 232.047 408.29 232.228C405.1 232.296 401.91 232.092 398.765 231.662C365.621 227.153 336.21 197.45 329.966 190.495C323.359 183.154 325.328 168.654 329.785 164.146C337.861 156.012 367.951 179.121 394.286 185.397C412.928 189.838 427.43 165.55 432.792 145.952C442.429 110.79 466.071 126.513 466.071 126.513C493.922 148.399 473.605 205.358 434.783 225.182Z" fill="#A5410F"/>
<path d="M304.016 181.863C304.016 181.863 288.111 182.384 288.157 186.19C288.224 190.2 303.088 189 303.088 189C303.088 189 296.188 191.673 296.55 193.508C297.455 198.085 317.093 195.842 321.957 194.981C326.844 194.12 335.576 195.049 341.662 192.851C345.802 191.356 356.911 177.354 353.562 169.651C352.499 167.227 345.689 164.395 341.775 162.129C337.771 159.841 331.595 157.553 327.545 156.828C324.943 156.374 321.029 153.406 316.074 153.044L320.712 163.239C321.346 163.624 318.88 165.981 318.88 165.981C318.88 165.981 289.423 161.857 287.252 165.346C284.333 169.991 297.229 171.373 302.975 171.622C302.975 171.622 286.528 173.548 285.215 175.95C282.659 180.753 304.016 181.863 304.016 181.863Z" fill="#E8A36F"/>
<path d="M434.783 225.182C426.842 230.053 418.358 233.316 408.29 232.228C405.1 231.888 401.91 232.092 398.765 231.662C401.435 226.677 406.842 219.948 416.932 218.34C426.027 216.912 431.615 221.104 434.783 225.182Z" fill="#731F07"/>
<path d="M415.281 180.186C412.792 182.089 410.122 183.766 407.272 185.035C392.34 191.718 368.291 174.545 367.273 173.797C366.82 173.48 366.73 172.846 367.046 172.392C367.363 171.939 367.997 171.849 368.449 172.166C368.698 172.347 392.589 189.407 406.457 183.2C426.547 174.205 437.543 144.389 437.656 144.095C437.837 143.574 438.425 143.302 438.945 143.483C439.466 143.664 439.737 144.253 439.556 144.774C439.149 145.862 430.936 168.11 415.281 180.186Z" fill="#731F07"/>
<path d="M443.764 220.673C434.805 227.583 426.344 231.843 418.539 233.338C404.964 235.944 390.01 231.594 379.874 227.493C368.924 223.052 361.051 217.932 360.983 217.886C360.531 217.592 360.395 216.958 360.689 216.504C360.983 216.051 361.617 215.915 362.069 216.21C362.386 216.414 393.019 236.193 418.154 231.367C443.312 226.519 469.058 192.171 469.307 191.809C469.623 191.356 470.257 191.265 470.709 191.605C471.162 191.945 471.252 192.557 470.913 193.01C470.845 193.1 464.262 201.936 454.601 211.248C450.913 214.805 447.294 217.932 443.764 220.673Z" fill="#731F07"/>
<path d="M119.382 360.123C132.684 361.777 153.612 353.78 163.906 358.107C174.199 362.434 185.489 360.78 187.977 352.919C189.425 348.41 192.344 338.441 195.715 331.078C195.918 330.602 196.145 330.149 196.371 329.696C196.665 329.084 196.982 328.472 197.299 327.906C197.728 327.113 198.317 326.388 198.905 325.731C199.289 325.3 199.674 324.893 200.036 324.53C201.552 322.899 202.547 321.698 200.285 320.769C191.982 317.348 179.018 310.936 175.874 312.046C174.72 312.454 173.362 313.791 171.869 315.626C171.552 316.011 171.213 316.442 170.896 316.895C170.15 317.869 169.403 318.957 168.611 320.089C168.34 320.497 168.046 320.928 167.752 321.358C164.2 326.592 160.467 332.437 157.593 334.408C152.277 338.079 143.657 341.432 138.318 341.817C131.689 342.27 115.377 345.804 112.481 346.394C107.142 347.458 106.079 358.447 119.382 360.123Z" fill="white"/>
<path d="M170.896 316.895C180.24 319.84 189.561 322.786 198.905 325.731C199.29 325.3 199.674 324.893 200.036 324.53C190.647 321.562 181.258 318.594 171.869 315.626C171.552 316.034 171.236 316.464 170.896 316.895Z" fill="#C2AC96"/>
<path d="M167.752 321.336C176.937 325.006 186.258 328.246 195.738 331.055C195.941 330.579 196.167 330.126 196.394 329.673C187.005 326.886 177.729 323.692 168.611 320.067C168.34 320.497 168.046 320.928 167.752 321.336Z" fill="#C2AC96"/>
<path d="M506.749 312.907C506.749 312.907 506.953 315.626 507.79 319.863C507.903 320.497 508.062 321.154 508.22 321.857C509.894 329.288 513.401 340.095 520.573 349.407C520.957 349.905 521.364 350.404 521.772 350.902C524.373 354.051 527.428 356.974 530.98 359.489C531.342 359.738 531.704 359.987 532.066 360.237C537.767 364.02 544.758 366.762 553.287 367.736C553.83 367.804 554.373 367.849 554.916 367.894C556.59 368.053 558.332 368.121 560.142 368.121C567.404 368.121 573.762 366.92 579.35 364.904C579.757 364.768 580.142 364.609 580.526 364.451C588.264 361.415 594.44 356.748 599.349 351.423C599.734 351.015 600.096 350.608 600.458 350.2C605.096 344.921 608.535 339.076 611.069 333.615C611.227 333.253 611.408 332.89 611.566 332.55C616.34 321.879 617.652 312.953 617.652 312.953H506.749V312.907Z" fill="#2D4446"/>
<path d="M595.096 312.909C599.123 320.862 604.123 328.61 611.069 333.572C611.227 333.209 611.408 332.847 611.566 332.507C605.028 327.772 600.254 320.431 596.431 312.909H595.096Z" fill="#131E07"/>
<path d="M578.694 312.907C585.413 318.186 590.843 325.029 594.485 332.777C596.748 337.603 599.462 344.898 599.372 351.355C599.757 350.948 600.119 350.54 600.481 350.132C600.277 344.626 598.354 338.781 596.544 334.431C593.06 326.071 587.54 318.662 580.617 312.885H578.694V312.907Z" fill="#131E07"/>
<path d="M530.98 359.444C531.342 359.693 531.704 359.942 532.066 360.191C535.391 343.29 530.391 325.55 518.627 312.885H516.975C528.944 325.232 534.102 342.701 530.98 359.444Z" fill="#131E07"/>
<path d="M546.568 358.401C548.717 361.573 550.957 364.655 553.287 367.691C553.83 367.759 554.373 367.804 554.916 367.849C551.59 363.612 548.468 359.217 545.55 354.686C543.875 352.08 540.889 348.274 541.975 344.921C543.355 340.707 549.169 342.474 552.133 343.516C563.264 347.39 571.748 356.023 579.35 364.836C579.757 364.7 580.142 364.541 580.526 364.383C577.087 360.395 573.535 356.521 569.621 353.009C565.21 349.044 560.323 345.578 554.848 343.267C551.183 341.726 544.486 339.053 541.5 343.244C538.197 347.912 544.124 354.776 546.568 358.401Z" fill="#131E07"/>
<path d="M507.79 319.84C507.903 320.475 508.062 321.132 508.22 321.834C515.799 328.971 520.233 339.053 520.573 349.384C520.957 349.883 521.364 350.381 521.772 350.88C521.84 339.143 516.772 327.543 507.79 319.84Z" fill="#131E07"/>
<path d="M530.799 312.907C533.061 315.037 535.391 317.099 537.767 319.115C543.536 323.986 549.577 328.495 555.889 332.641C558.943 334.635 562.065 336.855 565.436 338.305C568.038 339.438 571.16 339.982 573.603 338.147C578.762 334.295 575.979 326.524 573.694 321.857C572.065 318.549 569.916 315.513 567.336 312.907H565.64C568.943 316.057 571.59 319.84 573.4 324.077C574.667 327.068 575.956 330.693 575.029 333.933C573.716 338.577 569.169 338.736 565.436 336.991C559.735 334.318 554.373 330.308 549.282 326.615C543.445 322.378 537.857 317.801 532.563 312.907H530.799Z" fill="#131E07"/>
<path d="M562.201 316.079C531.576 316.079 506.749 314.659 506.749 312.907C506.749 311.156 531.576 309.735 562.201 309.735C592.826 309.735 617.652 311.156 617.652 312.907C617.652 314.659 592.826 316.079 562.201 316.079Z" fill="#131E07"/>
<path d="M533.943 196.68C537.269 200.668 539.667 215.44 546.025 217.796C550.391 219.427 552.721 213.106 544.237 205.108C538.785 199.965 536.342 193.803 535.301 190.087C536.794 183.562 538.74 176.878 541.274 170.806C546.16 175.338 554.011 181.75 556.251 178.691C558.694 175.338 551.386 164.803 547.314 159.41C549.215 156.646 551.319 154.245 553.649 152.342C557.472 149.215 561.907 147.425 567.065 147.561C570.775 147.652 574.191 149.011 577.246 151.277C572.879 159.931 566.454 174.545 570.956 177.898C575.142 181.025 581.205 168.926 585.006 159.886C590.345 168.133 593.942 179.461 595.481 190.382C594.44 192.33 592.63 194.618 589.508 196.861C581.25 202.82 571.431 214.828 576.341 217.501C581.25 220.175 586.363 213.106 590.028 206.807C591.906 203.568 594.01 200.962 596.295 199.24C596.363 201.143 596.386 203.024 596.318 204.814C595.028 239.138 561.545 239.138 561.545 239.138C561.545 239.138 528.016 231.39 533.943 196.68ZM576.069 197.36C579.395 197.337 584.666 191.129 587.132 187.685C589.598 184.219 587.63 181.885 585.255 182.543C585.232 182.543 585.187 182.565 585.164 182.565C581.816 183.562 571.771 197.405 576.069 197.36ZM546.862 189.136C546.839 189.136 546.794 189.113 546.771 189.113C544.396 188.456 542.45 190.042 543.559 193.078C545.029 197.065 546.975 198.629 549.939 197.133C551.794 196.182 550.21 190.132 546.862 189.136Z" fill="#7F784B"/>
<path d="M565.142 188.071C562.223 203.001 563.151 218.43 564.26 233.497C565.459 249.855 567.088 266.213 566.454 282.638C566.092 291.814 565.006 300.967 562.789 309.894C562.608 310.642 561.432 310.325 561.613 309.577C569.576 277.314 562.223 244.462 561.997 211.86C561.952 203.794 562.404 195.706 563.965 187.776C564.124 186.983 565.278 187.323 565.142 188.071Z" fill="#131E07"/>
<path d="M580.187 239.274C580.526 244.462 573.762 257.807 577.495 263.471C580.074 267.368 585.662 263.63 583.513 252.166C582.133 244.78 583.807 238.368 585.164 234.743C590.209 230.37 595.73 226.111 601.34 222.69C602.63 229.237 605.186 239.048 608.784 237.892C612.72 236.623 613.037 223.822 612.924 217.048C616.091 215.938 619.191 215.236 622.222 215.077C627.154 214.805 631.792 215.983 635.864 219.133C638.806 221.398 640.751 224.502 641.905 228.15C633.285 232.545 619.485 240.566 621.159 245.935C622.697 250.92 634.733 244.734 643.104 239.682C642.561 249.492 638.783 260.752 633.625 270.495C631.634 271.469 628.828 272.216 624.982 272.194C614.802 272.126 599.802 276.023 602.177 281.098C604.575 286.15 612.856 283.477 619.53 280.554C622.946 279.059 626.181 278.198 629.055 278.152C627.991 279.738 626.905 281.256 625.774 282.661C604.508 309.622 577.472 289.843 577.472 289.843C577.472 289.843 554.961 263.811 580.187 239.274ZM613.806 264.717C616.498 266.643 624.417 264.763 628.444 263.426C632.471 262.089 632.267 259.03 629.96 258.17C629.937 258.17 629.892 258.147 629.869 258.124C626.566 256.969 610.322 262.202 613.806 264.717ZM595.073 240.815C595.051 240.792 595.028 240.769 595.006 240.724C593.49 238.798 590.978 238.912 590.074 242.038C588.92 246.116 589.553 248.541 592.834 249.084C594.892 249.424 597.177 243.601 595.073 240.815Z" fill="#7F784B"/>
<path d="M610.503 250.716C602.63 257.966 594.825 265.51 588.467 274.165C583.648 280.735 579.915 287.94 576.544 295.349C574.124 300.673 571.816 306.042 569.44 311.389C569.124 312.092 568.083 311.48 568.4 310.778C572.268 302.055 575.866 293.151 580.39 284.723C584.418 277.246 589.417 270.449 595.141 264.173C599.734 259.144 604.643 254.454 609.643 249.832C610.209 249.334 611.069 250.172 610.503 250.716Z" fill="#131E07"/>
<path d="M551.068 296.028C551.068 296.028 524.169 315.989 502.721 289.186C501.59 287.781 500.481 286.286 499.418 284.7C502.291 284.723 505.526 285.561 508.965 287.034C515.639 289.911 523.965 292.539 526.318 287.464C528.671 282.389 513.648 278.583 503.468 278.742C499.622 278.787 496.816 278.062 494.825 277.11C489.576 267.413 485.73 256.176 485.12 246.366C493.536 251.35 505.594 257.467 507.11 252.46C508.739 247.068 494.87 239.161 486.228 234.811C487.337 231.14 489.282 228.037 492.201 225.748C496.251 222.576 500.888 221.353 505.82 221.602C508.829 221.738 511.952 222.418 515.119 223.505C515.051 230.28 515.458 243.103 519.395 244.326C523.015 245.459 525.503 235.626 526.748 229.079C532.404 232.455 537.947 236.669 543.014 241.019C544.394 244.644 546.114 251.033 544.779 258.419C542.72 269.883 548.354 273.599 550.887 269.679C554.575 263.97 547.743 250.693 548.037 245.505C573.398 269.838 551.068 296.028 551.068 296.028ZM498.49 264.672C498.445 264.695 498.422 264.695 498.4 264.717C496.092 265.601 495.911 268.659 499.938 269.974C503.965 271.265 511.884 273.1 514.576 271.152C518.06 268.614 501.748 263.494 498.49 264.672ZM535.435 255.383C538.693 254.816 539.327 252.392 538.15 248.314C537.245 245.21 534.734 245.097 533.218 247.045C533.196 247.068 533.173 247.091 533.15 247.136C531.069 249.923 533.377 255.723 535.435 255.383Z" fill="#7F784B"/>
<path d="M518.65 256.266C526.342 263.245 534.147 270.268 540.798 278.288C545.685 284.179 549.599 290.704 552.97 297.569C555.527 302.757 557.902 308.059 560.278 313.338C560.594 314.04 559.554 314.652 559.237 313.95C555.481 305.635 551.862 297.184 547.156 289.367C543.016 282.48 537.812 276.408 532.179 270.721C527.518 266.031 522.654 261.568 517.767 257.127C517.202 256.584 518.061 255.745 518.65 256.266Z" fill="#131E07"/>
</svg>
